<svg width="140" height="74" viewBox="0 0 140 74" fill="none" xmlns="http://www.w3.org/2000/svg">
<path d="M70.56 39.5588L70.56 71.0308H69.664C66.528 71.0308 64.4373 70.1721 63.392 68.4548C63.0187 67.7827 62.832 66.9988 62.832 66.1028L62.608 59.2708H15.12L17.136 65.8788C17.808 67.8948 17.2853 69.6868 15.568 71.2548C13.776 72.7481 12.32 73.4574 11.2 73.3828L1.34401 55.9108C0.448005 54.3428 4.24398e-06 52.4761 3.90287e-06 50.3107C3.43237e-06 47.3241 1.94134 45.8307 5.82401 45.8307H62.384L63.056 34.5188C63.504 34.2948 64.5493 34.3321 66.192 34.6307C69.104 35.3027 70.56 36.9454 70.56 39.5588Z" fill="#D8DDE8"/>
<path d="M16.464 48.832C11.8347 48.832 7.95201 46.6293 4.81601 42.224C1.60534 37.8187 1.05863e-06 32.256 0 25.536C-1.07039e-06 18.7413 1.82933 13.3653 5.488 9.408C9.14667 5.45067 13.888 3.472 19.712 3.472C23.1467 3.472 26.7307 4.256 30.464 5.824C34.1227 7.392 37.408 9.25867 40.32 11.424C43.1573 13.5893 46.0693 16.1653 49.056 19.152C53.4613 23.7067 57.4187 28.3733 60.928 33.152L60.928 8.064L54.656 7.392C52.64 7.168 51.296 6.30933 50.624 4.816C49.952 3.32267 49.84 1.71733 50.288 2.44516e-07L70.448 0L70.448 48.832C66.9387 50.0267 64.5867 50.512 63.392 50.288C63.168 49.9893 62.1227 48.7947 60.256 46.704C58.3147 44.5387 57.0453 43.12 56.448 42.448C55.8507 41.7013 54.5813 40.2827 52.64 38.192C50.6987 36.1013 49.2427 34.608 48.272 33.712C47.3013 32.816 45.8453 31.5093 43.904 29.792C41.9627 28 40.3573 26.6933 39.088 25.872C37.8187 24.976 36.2507 23.8933 34.384 22.624C32.5173 21.3547 30.8373 20.4213 29.344 19.824C25.4613 18.4053 22.0267 17.696 19.04 17.696C16.0533 17.696 13.5893 18.5173 11.648 20.16C9.632 21.728 8.624 24.3413 8.624 28C8.624 31.584 10.1173 34.1227 13.104 35.616C16.016 37.1093 20.048 37.856 25.2 37.856C25.424 40.6933 24.864 43.232 23.52 45.472C22.176 47.712 19.824 48.832 16.464 48.832Z" fill="#D8DDE8"/>
<path d="M68.56 39.5588L68.56 71.0308H69.456C72.592 71.0308 74.6827 70.1721 75.728 68.4548C76.1013 67.7828 76.288 66.9988 76.288 66.1028L76.512 59.2708H124L121.984 65.8788C121.312 67.8948 121.835 69.6868 123.552 71.2548C125.344 72.7481 126.8 73.4574 127.92 73.3828L137.776 55.9108C138.672 54.3428 139.12 52.4761 139.12 50.3108C139.12 47.3241 137.179 45.8307 133.296 45.8307L76.736 45.8308L76.064 34.5188C75.616 34.2948 74.5707 34.3321 72.928 34.6308C70.016 35.3028 68.56 36.9454 68.56 39.5588Z" fill="#D8DDE8"/>
<path d="M122.656 48.832C127.285 48.832 131.168 46.6293 134.304 42.224C137.515 37.8187 139.12 32.256 139.12 25.536C139.12 18.7413 137.291 13.3653 133.632 9.408C129.973 5.45067 125.232 3.472 119.408 3.472C115.973 3.472 112.389 4.256 108.656 5.824C104.997 7.392 101.712 9.25867 98.8 11.424C95.9627 13.5893 93.0507 16.1653 90.064 19.152C85.6587 23.7067 81.7013 28.3733 78.192 33.152L78.192 8.064L84.464 7.392C86.48 7.168 87.824 6.30933 88.496 4.816C89.168 3.32267 89.28 1.71734 88.832 2.42108e-06L68.672 2.6656e-06L68.672 48.832C72.1813 50.0267 74.5333 50.512 75.728 50.288C75.952 49.9893 76.9973 48.7947 78.864 46.704C80.8053 44.5387 82.0747 43.12 82.672 42.448C83.2693 41.7013 84.5387 40.2827 86.48 38.192C88.4213 36.1013 89.8773 34.608 90.848 33.712C91.8187 32.816 93.2747 31.5093 95.216 29.792C97.1573 28 98.7627 26.6933 100.032 25.872C101.301 24.976 102.869 23.8933 104.736 22.624C106.603 21.3547 108.283 20.4213 109.776 19.824C113.659 18.4053 117.093 17.696 120.08 17.696C123.067 17.696 125.531 18.5173 127.472 20.16C129.488 21.728 130.496 24.3413 130.496 28C130.496 31.584 129.003 34.1227 126.016 35.616C123.104 37.1093 119.072 37.856 113.92 37.856C113.696 40.6933 114.256 43.232 115.6 45.472C116.944 47.712 119.296 48.832 122.656 48.832Z" fill="#D8DDE8"/>
</svg>
