<?xml version="1.0" encoding="UTF-8"?>
<svg version="1.1" xmlns="http://www.w3.org/2000/svg" width="557" height="359">
<path d="M0 0 C20.19571108 15.67428322 35.45590964 36.80035979 39.56542969 62.54003906 C43.04020916 92.40582274 36.54024395 118.72517546 17.97363281 142.37255859 C7.87102676 154.74069922 -5.34308249 163.37457228 -20.12109375 169.234375 C-17.1041397 172.93014372 -14.14885856 176.31425065 -10.49609375 179.38671875 C-4.75118924 184.34876772 0.49108723 189.80020254 5.8125 195.20703125 C10.15001193 199.5867232 14.54130591 203.80467823 19.24316406 207.79296875 C20.87890625 209.234375 20.87890625 209.234375 23.12890625 211.734375 C23.70640625 212.229375 24.28390625 212.724375 24.87890625 213.234375 C28.14706061 212.83430491 29.97825433 211.58103317 32.41015625 209.43359375 C33.05597656 208.86833984 33.70179688 208.30308594 34.3671875 207.72070312 C35.03105469 207.12708984 35.69492188 206.53347656 36.37890625 205.921875 C37.04277344 205.33986328 37.70664063 204.75785156 38.390625 204.15820312 C42.29334402 200.72970319 42.29334402 200.72970319 45.796875 196.90625 C49.06204196 194.2843148 52.61182422 194.23782262 56.69140625 193.796875 C65.7586752 192.80813646 72.86820203 190.23794307 81.87890625 187.234375 C81.87890625 228.484375 81.87890625 269.734375 81.87890625 312.234375 C47.87890625 312.234375 47.87890625 312.234375 35.87890625 301.234375 C32.87890625 298.234375 29.87890625 295.234375 26.87890625 292.234375 C22.2356616 293.67951008 19.24510578 296.36475688 15.81640625 299.671875 C14.66025951 300.76052634 13.50400719 301.84906556 12.34765625 302.9375 C11.19114614 304.0361846 10.03488907 305.13513563 8.87890625 306.234375 C-15.37081914 329.19358282 -41.66098157 343.414763 -75.85546875 342.5234375 C-84.9080881 341.72212909 -93.33869775 339.36280874 -101.77734375 336.07421875 C-104.26759325 335.10091694 -104.26759325 335.10091694 -107.62109375 334.671875 C-110.5888063 334.1525253 -111.07944161 333.34057135 -113.12109375 331.234375 C-114.87706834 330.15077007 -116.63560349 329.07078068 -118.41430664 328.02490234 C-127.3978304 322.72560312 -134.79857838 316.62939053 -142.12109375 309.234375 C-142.79527344 308.58210938 -143.46945313 307.92984375 -144.1640625 307.2578125 C-163.13778124 287.5459857 -166.96421107 260.42095437 -166.46875 234.359375 C-166.16834598 226.10741652 -164.9904472 218.99059605 -162.12109375 211.234375 C-161.70859375 210.06777344 -161.29609375 208.90117187 -160.87109375 207.69921875 C-153.77554686 189.49672204 -141.03668785 174.59212962 -126.12109375 162.234375 C-124.61788724 160.92554864 -123.11784724 159.61307606 -121.62109375 158.296875 C-120.45442708 157.27604167 -119.28776042 156.25520833 -118.12109375 155.234375 C-120.82626662 152.03088082 -123.51359075 148.86243648 -126.4296875 145.84765625 C-137.128566 134.68143204 -144.21700137 121.85234268 -149.12109375 107.234375 C-149.46140625 106.22117187 -149.80171875 105.20796875 -150.15234375 104.1640625 C-155.87744358 83.01299925 -153.74478006 56.86669508 -144.12109375 37.234375 C-143.69054687 36.33460937 -143.26 35.43484375 -142.81640625 34.5078125 C-132.07948893 13.4586017 -113.37837219 -3.71352606 -90.93164062 -11.52783203 C-60.00324133 -21.52362746 -26.93630866 -18.91038812 0 0 Z M-88.37109375 53.484375 C-96.15701517 63.07038411 -98.05231713 74.23643894 -97.12109375 86.234375 C-94.95968478 97.26169084 -89.19465476 106.57577715 -80.12109375 113.234375 C-70.18492975 119.60449241 -59.29150747 121.72079524 -47.68359375 119.546875 C-36.56531485 116.78674283 -28.06923252 110.56873316 -21.734375 101.1015625 C-15.98037082 90.87531779 -14.28476727 79.47590358 -17.24609375 68.109375 C-20.89342773 57.57263239 -27.10839608 49.05429975 -37.00390625 43.6640625 C-55.59056822 34.99028692 -74.2682114 38.55822794 -88.37109375 53.484375 Z M-78.12109375 193.234375 C-78.67796875 193.80285156 -79.23484375 194.37132812 -79.80859375 194.95703125 C-83.50210645 198.69421724 -87.1961215 202.37224675 -91.18359375 205.796875 C-91.83328125 206.3640625 -92.48296875 206.93125 -93.15234375 207.515625 C-94.4767066 208.67181479 -95.81027857 209.81753139 -97.15234375 210.953125 C-104.95282817 218.03356471 -110.6104624 228.34814656 -111.39453125 238.921875 C-111.84830498 252.66770381 -108.53053119 263.36249101 -99.05859375 273.734375 C-90.40327227 282.05821608 -78.82880443 286.16744767 -66.93359375 286.609375 C-61.93597658 286.42575648 -57.69195643 285.21535279 -53.12109375 283.234375 C-52.42628906 282.94046875 -51.73148438 282.6465625 -51.015625 282.34375 C-43.90580311 278.87301727 -38.49877947 273.30136312 -32.85888672 267.88232422 C-31.08644859 266.20152099 -29.28450773 264.55962453 -27.46875 262.92578125 C-26.87674805 262.39090088 -26.28474609 261.85602051 -25.67480469 261.30493164 C-24.53947232 260.28087203 -23.40094071 259.26034485 -22.25878906 258.24389648 C-19.50692022 255.73948854 -17.65890854 253.60458453 -16.12109375 250.234375 C-16.53657471 249.84918701 -16.95205566 249.46399902 -17.38012695 249.06713867 C-26.95879327 240.16716243 -36.3495725 231.11431616 -45.52270508 221.7956543 C-51.1398734 216.11533762 -56.93164649 210.77291466 -63.18359375 205.796875 C-66.27778936 203.09768308 -68.75878116 200.20677185 -71.3125 197.00390625 C-73.41977578 194.94214399 -75.3460033 194.15940515 -78.12109375 193.234375 Z " fill="#1D2E43" transform="translate(166.12109375,16.765625)"/>
<path d="M0 0 C28.96020337 -0.08839696 57.92031091 -0.16217025 86.88061558 -0.20426132 C90.30973354 -0.20926337 93.73885121 -0.21444073 97.16796875 -0.21972656 C97.85056394 -0.2207758 98.53315913 -0.22182505 99.23643902 -0.22290608 C110.2484002 -0.24024978 121.26027673 -0.27175364 132.27218792 -0.30861118 C143.59500739 -0.34618961 154.91776461 -0.36797244 166.24065042 -0.37635398 C172.59063005 -0.38154425 178.94041855 -0.39364359 185.29033661 -0.42292023 C191.28213284 -0.45031869 197.27366144 -0.45839616 203.26551437 -0.45243073 C205.45020635 -0.45352013 207.63490844 -0.46132689 209.81954575 -0.4768219 C246.61649494 -0.7247389 278.42320436 11.19230777 305 37 C327.6779985 59.60690759 341.01990435 90.38000104 341.38037109 122.41796875 C341.38082312 123.77864694 341.37898918 125.13932759 341.375 126.5 C341.37418427 127.5511499 341.37418427 127.5511499 341.37335205 128.62353516 C341.24554873 164.57205344 326.77895413 195.14941394 301.515625 220.4921875 C278.52043773 242.33081209 248.00189656 254.4709817 216.359375 254.1953125 C214.48708221 254.19106766 214.48708221 254.19106766 212.57696533 254.18673706 C208.63454132 254.17564322 204.69235404 254.15055899 200.75 254.125 C198.05859953 254.11381319 195.36719273 254.10569517 192.67578125 254.09765625 C186.11710827 254.07573934 179.55857106 254.04237101 173 254 C173.62953432 252.38914244 174.2627227 250.77971257 174.89746094 249.17089844 C175.24967712 248.27449646 175.60189331 247.37809448 175.96478271 246.45452881 C180.18103144 236.4576865 188.84830097 230.08918979 198.52001953 225.89428711 C202.60232226 224.42219862 206.70586874 223.9278556 211 223.4375 C212.85830248 223.19445718 214.71637388 222.94964144 216.57421875 222.703125 C217.94779541 222.52620117 217.94779541 222.52620117 219.34912109 222.34570312 C246.87422001 218.75613414 271.09355439 208.34191006 288.875 186.25 C304.42099107 166.01183379 311.61569582 140.08544737 308.53515625 114.765625 C304.87443573 89.33002948 291.92376141 66.46929014 271.49145508 50.77416992 C250.83278773 35.72691556 224.92675887 29.1314664 199.63500977 32.77148438 C174.2840641 36.96910237 151.63858862 50.4738156 136.46875 71.30078125 C121.44054047 93.12552187 115.82195959 119.58097321 120.50390625 145.60620117 C122.08984979 153.38903887 124.95836783 160.68630193 128 168 C130.90742776 168 132.33107815 166.31656426 134.54418945 164.59594727 C146.37736611 155.40253794 159.79915067 147.89180928 174 143 C173.67773438 142.02546875 173.35546875 141.0509375 173.0234375 140.046875 C169.6308085 128.09761535 171.45602914 115.32165078 177.3203125 104.58203125 C183.32327495 94.79031381 191.84561009 88.60701867 202.91088867 85.45581055 C215.50906363 82.70709106 227.91476968 85.10729599 238.75 91.75 C247.79406096 98.22619365 253.61670645 107.07667761 256 118 C256.8800124 132.55627072 255.53682748 144.31683316 246 156 C238.54874473 164.12268707 228.63276169 168.7691917 217.66796875 169.39453125 C191.61427648 171.05004944 166.13962797 177.3596638 147.26171875 196.7890625 C145.49534491 198.84910148 143.74505244 200.92186701 142 203 C141.35804688 203.71929687 140.71609375 204.43859375 140.0546875 205.1796875 C128.16497391 219.02770686 122.52344342 236.3827829 119 254 C108.44 254 97.88 254 87 254 C87 180.41 87 106.82 87 31 C69.51 31 52.02 31 34 31 C34 37.6 34 44.2 34 51 C31.09936266 62.0447345 25.52594644 71.42644449 16 78 C10.48477095 81.05971274 6.37843392 83 0 83 C0 55.61 0 28.22 0 0 Z " fill="#F3F6FF" transform="translate(216,75)"/>
<path d="M0 0 C0 41.25 0 82.5 0 125 C-10.56 125 -21.12 125 -32 125 C-32 86.39 -32 47.78 -32 8 C-26.39 7.01 -20.78 6.02 -15 5 C-0.11627907 0 -0.11627907 0 0 0 Z " fill="#F2F5FE" transform="translate(248,204)"/>
<path d="M0 0 C1.485 0.99 1.485 0.99 3 2 C3 2.99 3 3.98 3 5 C2.01 5 1.02 5 0 5 C0 3.35 0 1.7 0 0 Z " fill="#182C47" transform="translate(213,63)"/>
<path d="M0 0 C2 1 2 1 2 1 Z " fill="#000000" transform="translate(60,352)"/>
</svg>
