<?xml version="1.0" encoding="UTF-8"?>
<svg version="1.1" xmlns="http://www.w3.org/2000/svg" width="443" height="356">
<path d="M0 0 C97.35 0 194.7 0 295 0 C295 0.66 295 1.32 295 2 C296.546875 1.938125 296.546875 1.938125 298.125 1.875 C301.97459889 1.99918061 304.40131022 2.7298742 308 4 C311.31997948 4.73888265 314.65617992 5.37881603 318 6 C318 6.66 318 7.32 318 8 C319.175625 8.103125 320.35125 8.20625 321.5625 8.3125 C325.84324886 8.83528172 329.09705482 10.19864069 333 12 C334.32276056 12.37308631 335.65232077 12.73046415 337 13 C337 13.66 337 14.32 337 15 C338.98 15.33 340.96 15.66 343 16 C343 16.66 343 17.32 343 18 C343.763125 18.144375 344.52625 18.28875 345.3125 18.4375 C348 19 348 19 351 20 C351 20.66 351 21.32 351 22 C352.65 22.33 354.3 22.66 356 23 C356 23.66 356 24.32 356 25 C358.31 25.66 360.62 26.32 363 27 C363 27.66 363 28.32 363 29 C364.32 29.33 365.64 29.66 367 30 C367 30.66 367 31.32 367 32 C367.7425 32.268125 368.485 32.53625 369.25 32.8125 C371.89061949 33.95276751 373.85552844 35.09380306 376 37 C376 37.66 376 38.32 376 39 C377.65 39.66 379.3 40.32 381 41 C381 41.66 381 42.32 381 43 C381.59167969 43.27585938 382.18335938 43.55171875 382.79296875 43.8359375 C389.42898659 47.33599647 394.25297804 53.33965552 399 59 C399.51175781 59.58523437 400.02351563 60.17046875 400.55078125 60.7734375 C404 64.75704225 404 64.75704225 404 67 C404.58265625 67.2165625 405.1653125 67.433125 405.765625 67.65625 C408.74068202 69.44544513 409.93794012 71.55733865 411.75 74.5 C412.36359375 75.4796875 412.9771875 76.459375 413.609375 77.46875 C415 80 415 80 415 82 C415.66 82 416.32 82 417 82 C432 109.11340206 432 109.11340206 432 116 C432.66 116 433.32 116 434 116 C434.97542952 119.39172195 435.94703013 122.78445484 436.91015625 126.1796875 C437.57235263 128.50093501 438.24421293 130.81949277 438.93359375 133.1328125 C440.43001897 138.27364172 441.35715081 142.64273779 441 148 C441.66 148 442.32 148 443 148 C443 167.8 443 187.6 443 208 C442.34 208 441.68 208 441 208 C441.03738281 208.99257812 441.07476562 209.98515625 441.11328125 211.0078125 C440.99525132 215.16735004 440.25578098 218.88290136 439.1875 222.875 C439.00735352 223.57173828 438.82720703 224.26847656 438.64160156 224.98632812 C437.30570059 230.06984512 435.76832455 235.04869125 434 240 C433.34 240 432.68 240 432 240 C431.814375 241.19625 431.62875 242.3925 431.4375 243.625 C429.89036008 250.60358858 426.35275225 256.75129274 423 263 C422.40832031 264.1034375 421.81664062 265.206875 421.20703125 266.34375 C419.81821439 268.90365946 418.41744855 271.45586158 417 274 C416.34 274 415.68 274 415 274 C414.74347656 274.89332031 414.48695313 275.78664063 414.22265625 276.70703125 C412.99243412 280.02037711 411.69493425 282.00138126 409.4375 284.6875 C408.72722656 285.54085938 408.01695312 286.39421875 407.28515625 287.2734375 C406.15400391 288.62308594 406.15400391 288.62308594 405 290 C404.23558594 290.96164062 403.47117187 291.92328125 402.68359375 292.9140625 C398.74671354 297.85681227 394.99427392 302.14078834 390 306 C388.700625 307.3303125 388.700625 307.3303125 387.375 308.6875 C385.26749997 310.7395395 383.69138336 311.90351048 381 313 C381 313.66 381 314.32 381 315 C379.35 315.66 377.7 316.32 376 317 C376 317.66 376 318.32 376 319 C373.15222057 321.61046448 370.86933162 323.42676569 367 324 C367 324.66 367 325.32 367 326 C365.68 326.33 364.36 326.66 363 327 C363 327.66 363 328.32 363 329 C360.69 329.66 358.38 330.32 356 331 C356 331.66 356 332.32 356 333 C354.35 333.33 352.7 333.66 351 334 C351 334.66 351 335.32 351 336 C348.09399739 337.25664978 346.20395416 338 343 338 C343 338.66 343 339.32 343 340 C341.02 340.33 339.04 340.66 337 341 C337 341.66 337 342.32 337 343 C336.33613281 343.19335938 335.67226563 343.38671875 334.98828125 343.5859375 C329.49091992 345.19621047 329.49091992 345.19621047 324.125 347.1875 C322 348 322 348 318 348 C318 348.66 318 349.32 318 350 C316.92878906 350.20496094 315.85757812 350.40992188 314.75390625 350.62109375 C313.35673149 350.89302709 311.95959819 351.16517352 310.5625 351.4375 C309.85544922 351.57220703 309.14839844 351.70691406 308.41992188 351.84570312 C304.91570736 352.28406898 304.91570736 352.28406898 302 354 C299.66702567 354.04092937 297.33294775 354.04241723 295 354 C295 354.66 295 355.32 295 356 C197.65 356 100.3 356 0 356 C0 238.52 0 121.04 0 0 Z " fill="#1D2E43" transform="translate(0,0)"/>
<path d="M0 0 C97.35 0 194.7 0 295 0 C295 0.66 295 1.32 295 2 C296.546875 1.938125 296.546875 1.938125 298.125 1.875 C301.97459889 1.99918061 304.40131022 2.7298742 308 4 C311.31997948 4.73888265 314.65617992 5.37881603 318 6 C318 6.66 318 7.32 318 8 C319.175625 8.103125 320.35125 8.20625 321.5625 8.3125 C325.84324886 8.83528172 329.09705482 10.19864069 333 12 C334.32276056 12.37308631 335.65232077 12.73046415 337 13 C337 13.66 337 14.32 337 15 C338.98 15.33 340.96 15.66 343 16 C343 16.66 343 17.32 343 18 C343.763125 18.144375 344.52625 18.28875 345.3125 18.4375 C348 19 348 19 351 20 C351 20.66 351 21.32 351 22 C352.65 22.33 354.3 22.66 356 23 C356 23.66 356 24.32 356 25 C358.31 25.66 360.62 26.32 363 27 C363 27.66 363 28.32 363 29 C364.32 29.33 365.64 29.66 367 30 C367 30.66 367 31.32 367 32 C367.7425 32.268125 368.485 32.53625 369.25 32.8125 C371.89061949 33.95276751 373.85552844 35.09380306 376 37 C376 37.66 376 38.32 376 39 C377.65 39.66 379.3 40.32 381 41 C381 41.66 381 42.32 381 43 C381.59167969 43.27585938 382.18335938 43.55171875 382.79296875 43.8359375 C389.42898659 47.33599647 394.25297804 53.33965552 399 59 C399.51175781 59.58523437 400.02351563 60.17046875 400.55078125 60.7734375 C404 64.75704225 404 64.75704225 404 67 C404.58265625 67.2165625 405.1653125 67.433125 405.765625 67.65625 C408.74068202 69.44544513 409.93794012 71.55733865 411.75 74.5 C412.36359375 75.4796875 412.9771875 76.459375 413.609375 77.46875 C415 80 415 80 415 82 C415.66 82 416.32 82 417 82 C432 109.11340206 432 109.11340206 432 116 C432.66 116 433.32 116 434 116 C434.97542952 119.39172195 435.94703013 122.78445484 436.91015625 126.1796875 C437.57235263 128.50093501 438.24421293 130.81949277 438.93359375 133.1328125 C440.43001897 138.27364172 441.35715081 142.64273779 441 148 C441.66 148 442.32 148 443 148 C443 167.8 443 187.6 443 208 C442.34 208 441.68 208 441 208 C441.03738281 208.99257812 441.07476562 209.98515625 441.11328125 211.0078125 C440.99525132 215.16735004 440.25578098 218.88290136 439.1875 222.875 C439.00735352 223.57173828 438.82720703 224.26847656 438.64160156 224.98632812 C437.30570059 230.06984512 435.76832455 235.04869125 434 240 C433.34 240 432.68 240 432 240 C431.814375 241.19625 431.62875 242.3925 431.4375 243.625 C429.89036008 250.60358858 426.35275225 256.75129274 423 263 C422.40832031 264.1034375 421.81664062 265.206875 421.20703125 266.34375 C419.81821439 268.90365946 418.41744855 271.45586158 417 274 C416.34 274 415.68 274 415 274 C414.74347656 274.89332031 414.48695313 275.78664063 414.22265625 276.70703125 C412.99243412 280.02037711 411.69493425 282.00138126 409.4375 284.6875 C408.72722656 285.54085938 408.01695312 286.39421875 407.28515625 287.2734375 C406.15400391 288.62308594 406.15400391 288.62308594 405 290 C404.23558594 290.96164062 403.47117187 291.92328125 402.68359375 292.9140625 C398.74671354 297.85681227 394.99427392 302.14078834 390 306 C388.700625 307.3303125 388.700625 307.3303125 387.375 308.6875 C385.26749997 310.7395395 383.69138336 311.90351048 381 313 C381 313.66 381 314.32 381 315 C379.35 315.66 377.7 316.32 376 317 C376 317.66 376 318.32 376 319 C373.15222057 321.61046448 370.86933162 323.42676569 367 324 C367 324.66 367 325.32 367 326 C365.68 326.33 364.36 326.66 363 327 C363 327.66 363 328.32 363 329 C360.69 329.66 358.38 330.32 356 331 C356 331.66 356 332.32 356 333 C354.35 333.33 352.7 333.66 351 334 C351 334.66 351 335.32 351 336 C348.09399739 337.25664978 346.20395416 338 343 338 C343 338.66 343 339.32 343 340 C341.02 340.33 339.04 340.66 337 341 C337 341.66 337 342.32 337 343 C336.33613281 343.19335938 335.67226563 343.38671875 334.98828125 343.5859375 C329.49091992 345.19621047 329.49091992 345.19621047 324.125 347.1875 C322 348 322 348 318 348 C318 348.66 318 349.32 318 350 C316.92878906 350.20496094 315.85757812 350.40992188 314.75390625 350.62109375 C313.35673149 350.89302709 311.95959819 351.16517352 310.5625 351.4375 C309.85544922 351.57220703 309.14839844 351.70691406 308.41992188 351.84570312 C304.91570736 352.28406898 304.91570736 352.28406898 302 354 C299.66702567 354.04092937 297.33294775 354.04241723 295 354 C295 354.66 295 355.32 295 356 C197.65 356 100.3 356 0 356 C0 238.52 0 121.04 0 0 Z M44 45 C44 132.78 44 220.56 44 311 C82.548125 311.061875 121.09625 311.12375 160.8125 311.1875 C179.03432495 311.22846802 179.03432495 311.22846802 197.62426758 311.27026367 C208.56386439 311.28030025 208.56386439 311.28030025 219.50346375 311.28633118 C224.35600443 311.28911324 229.20844552 311.30030412 234.06095886 311.31672668 C240.27030821 311.33745956 246.47951484 311.34344491 252.68889558 311.33921683 C254.95543671 311.34009962 257.22198336 311.34595568 259.48849452 311.35764539 C299.71748845 311.5553196 331.88432795 299.07208964 361.1875 271.125 C366.31333244 265.84745158 370.6496342 259.91561566 375 254 C375.556875 253.26136719 376.11375 252.52273437 376.6875 251.76171875 C385.7237818 239.11583525 391.0536865 223.89869372 395 209 C395.17934082 208.32598145 395.35868164 207.65196289 395.54345703 206.95751953 C402.12528959 180.80666346 398.19043381 153.85249011 389 129 C388.60941406 127.91976562 388.21882813 126.83953125 387.81640625 125.7265625 C375.44606922 93.79482747 348.63793159 69.05740391 318 55 C317.02804687 54.53851563 316.05609375 54.07703125 315.0546875 53.6015625 C301.18308233 47.36500977 286.17014601 44.83070489 271.04052734 44.87974548 C269.58207649 44.87846146 269.58207649 44.87846146 268.09416199 44.87715149 C264.84140157 44.87550256 261.58869318 44.88100975 258.3359375 44.88647461 C255.96204632 44.88678107 253.58815505 44.88664723 251.21426392 44.88610935 C244.86445348 44.88588385 238.51466194 44.8916744 232.16485596 44.89871979 C226.20365337 44.90442005 220.24245536 44.9046832 214.28125 44.90539551 C196.85416417 44.91064019 179.42708185 44.92460137 162 44.9375 C123.06 44.958125 84.12 44.97875 44 45 Z " fill="#293F5A" transform="translate(0,0)"/>
<path d="M0 0 C28.63733078 -0.11057804 57.27449788 -0.20276249 85.91198972 -0.25532665 C89.30591019 -0.26157891 92.69983021 -0.26805065 96.09375 -0.2746582 C96.76931472 -0.27596976 97.44487944 -0.27728131 98.14091581 -0.2786326 C109.02733702 -0.30028897 119.91362393 -0.33965542 130.79996592 -0.38576398 C142.00074653 -0.43280266 153.20148187 -0.45997938 164.40236235 -0.47044247 C170.68097786 -0.47691924 176.9592905 -0.49197055 183.23780823 -0.52865028 C189.16727859 -0.56300478 195.09632609 -0.57297461 201.02588654 -0.56553841 C203.18310609 -0.56689555 205.34034226 -0.57658959 207.49747467 -0.59602737 C242.81837456 -0.89824533 274.88957601 9.98609717 301 34 C302.30904297 35.18529297 302.30904297 35.18529297 303.64453125 36.39453125 C326.24852725 57.85942824 340.18877372 88.89123562 341 120 C341.03996094 121.17820312 341.07992188 122.35640625 341.12109375 123.5703125 C341.73400619 157.53287252 329.9817402 189.01185105 307 214 C306.20980469 214.87269531 305.41960937 215.74539063 304.60546875 216.64453125 C285.52782229 236.73459012 260.04582893 248.46844611 233 253 C232.00476318 253.17869629 231.00952637 253.35739258 229.98413086 253.54150391 C224.66277074 254.28486732 219.30282657 254.12278258 213.94140625 254.09765625 C212.79711655 254.0962413 211.65282684 254.09482635 210.47386169 254.09336853 C206.83671399 254.08779301 203.19962895 254.07524498 199.5625 254.0625 C197.0891936 254.05748184 194.61588623 254.05291948 192.14257812 254.04882812 C186.09503088 254.0378316 180.04751992 254.02111788 174 254 C175.71404892 244.37596256 182.15274719 236.57606276 190 231 C199.40705343 224.90734882 208.0650687 223.66709226 219.0625 222.625 C240.69394974 220.35322359 259.1442801 214.03360546 276 200 C276.71285156 199.44957031 277.42570312 198.89914063 278.16015625 198.33203125 C294.47089079 185.19913366 306.0852012 162.30929354 308.72265625 141.8125 C310.73622078 114.13307768 306.32681268 87.77302911 287.84765625 66.125 C286.93306641 65.073125 286.93306641 65.073125 286 64 C285.54496094 63.401875 285.08992188 62.80375 284.62109375 62.1875 C272.11924164 46.06570862 248.59073574 34.82233732 228.8125 32.27734375 C201.20559731 30.26905472 174.77743586 34.62867328 153.1875 53.09375 C152.465625 53.7228125 151.74375 54.351875 151 55 C150.34 55.5053125 149.68 56.010625 149 56.53125 C133.21096204 69.00968322 121.9169394 91.40850241 119.44921875 111.1328125 C117.40527191 130.58042455 117.77387825 153.16081737 129 170 C129.825 169.31035156 130.65 168.62070313 131.5 167.91015625 C141.97143155 159.32376674 160.69268428 144 175 144 C174.7834375 143.28457031 174.566875 142.56914062 174.34375 141.83203125 C171.03395466 129.98725442 170.34802158 119.20421604 176 108 C182.22881775 97.36167266 190.5467414 89.83426959 202.33203125 85.8828125 C213.92448722 83.09272193 225.44717828 84.67185819 235.75390625 90.578125 C245.64992584 97.12631084 251.89424845 105.60790797 255.6484375 116.9609375 C257.74846547 129.14109974 255.515451 141.1494387 248.6875 151.4375 C242.02744901 160.13490836 233.27209441 166.65991351 222.2824707 168.68505859 C218.96318082 169.01030361 215.66206744 169.27022962 212.33279419 169.44708252 C208.78267495 169.64381142 205.24154137 169.94207 201.69921875 170.24609375 C201.01512436 170.30454468 200.33102997 170.36299561 199.62620544 170.42321777 C181.5091629 172.07315555 164.50781999 181.06227717 151 193 C150.34257812 193.50402344 149.68515625 194.00804687 149.0078125 194.52734375 C134.4705411 205.99952781 123.03227378 226.86050505 120 245 C119.67 247.97 119.34 250.94 119 254 C108.44 254 97.88 254 87 254 C87 180.41 87 106.82 87 31 C69.51 31 52.02 31 34 31 C34 36.94 34 42.88 34 49 C31.29830117 60.23906712 25.87224759 70.47989618 16 77 C5.49308756 83 5.49308756 83 0 83 C0 55.61 0 28.22 0 0 Z " fill="#F1F4FE" transform="translate(51,51)"/>
<path d="M0 0 C0 40.92 0 81.84 0 124 C-10.56 124 -21.12 124 -32 124 C-32 85.72 -32 47.44 -32 8 C-26.72 7.01 -21.44 6.02 -16 5 C-11.61558638 3.72962746 -11.61558638 3.72962746 -8.125 2.3125 C-2.13569322 0 -2.13569322 0 0 0 Z " fill="#F2F5FE" transform="translate(83,181)"/>
<path d="M0 0 C2.7972908 2.06756277 3.02692273 3.14440371 3.6875 6.6875 C3.790625 7.780625 3.89375 8.87375 4 10 C4.66 10 5.32 10 6 10 C6.97542952 13.39172195 7.94703013 16.78445484 8.91015625 20.1796875 C9.57235263 22.50093501 10.24421293 24.81949277 10.93359375 27.1328125 C12.43001897 32.27364172 13.35715081 36.64273779 13 42 C13.66 42 14.32 42 15 42 C15 61.8 15 81.6 15 102 C14.34 102 13.68 102 13 102 C13.03738281 102.99257812 13.07476562 103.98515625 13.11328125 105.0078125 C12.99525132 109.16735004 12.25578098 112.88290136 11.1875 116.875 C11.00735352 117.57173828 10.82720703 118.26847656 10.64160156 118.98632812 C9.30570059 124.06984512 7.76832455 129.04869125 6 134 C5.34 134 4.68 134 4 134 C6.01683992 123.22824131 8.52113845 112.7156213 11.51953125 102.17333984 C14.50630579 88.66304159 13.18414171 73.74130418 13 60 C12.99274902 59.20094238 12.98549805 58.40188477 12.97802734 57.57861328 C12.85690668 48.8558728 11.4868072 40.63770573 9.6875 32.125 C9.48680908 31.17334961 9.28611816 30.22169922 9.0793457 29.24121094 C7.82785255 23.68828588 6.17572608 18.52537286 3.95141602 13.28466797 C0 3.79599692 0 3.79599692 0 0 Z " fill="#5A6C82" transform="translate(428,106)"/>
<path d="M0 0 C10.55808656 0.96355353 10.55808656 0.96355353 15 2 C15 2.66 15 3.32 15 4 C16.7634375 4.1546875 16.7634375 4.1546875 18.5625 4.3125 C22.84324886 4.83528172 26.09705482 6.19864069 30 8 C31.32276056 8.37308631 32.65232077 8.73046415 34 9 C34 9.66 34 10.32 34 11 C35.98 11.33 37.96 11.66 40 12 C40 12.66 40 13.32 40 14 C40.763125 14.144375 41.52625 14.28875 42.3125 14.4375 C45 15 45 15 48 16 C48 16.66 48 17.32 48 18 C49.65 18.33 51.3 18.66 53 19 C53 19.66 53 20.32 53 21 C55.31 21.66 57.62 22.32 60 23 C60 23.66 60 24.32 60 25 C61.32 25.33 62.64 25.66 64 26 C64 26.66 64 27.32 64 28 C64.7425 28.268125 65.485 28.53625 66.25 28.8125 C68.86636554 29.94229421 70.80187111 31.20893202 73 33 C72.505 33.99 72.505 33.99 72 35 C71.23558594 34.45472656 70.47117187 33.90945312 69.68359375 33.34765625 C51.96563265 20.87472335 33.99328135 10.87811878 13 5 C10.56071909 4.2558126 8.12317688 3.50589972 5.6875 2.75 C4.59824219 2.41484375 3.50898438 2.0796875 2.38671875 1.734375 C1.59910156 1.49203125 0.81148438 1.2496875 0 1 C0 0.67 0 0.34 0 0 Z " fill="#768498" transform="translate(303,4)"/>
<path d="M0 0 C2.7972908 2.06756277 3.02692273 3.14440371 3.6875 6.6875 C3.790625 7.780625 3.89375 8.87375 4 10 C4.66 10 5.32 10 6 10 C6.97542952 13.39172195 7.94703013 16.78445484 8.91015625 20.1796875 C9.57235263 22.50093501 10.24421293 24.81949277 10.93359375 27.1328125 C12.43001897 32.27364172 13.35715081 36.64273779 13 42 C13.66 42 14.32 42 15 42 C15 45.63 15 49.26 15 53 C14.34 52.67 13.68 52.34 13 52 C12.42005035 49.61340092 11.96122731 47.29310627 11.5625 44.875 C11.30263075 43.41136103 11.04220075 41.94782153 10.78125 40.484375 C10.52072866 38.98960157 10.26030996 37.49481025 10 36 C8.61628646 28.13663862 7.17985998 20.63867796 3.984375 13.2890625 C0 4.02380952 0 4.02380952 0 0 Z " fill="#78889B" transform="translate(428,106)"/>
<path d="M0 0 C0.495 0.99 0.495 0.99 1 2 C-2.72815699 9.76235673 -8.47810277 16.00780707 -14.3515625 22.17578125 C-16.18050242 24.12611099 -17.89252138 26.05001462 -19.578125 28.11328125 C-21.65234995 30.58562357 -23.71074242 32.74477273 -26.125 34.875 C-26.78757812 35.47054687 -27.45015625 36.06609375 -28.1328125 36.6796875 C-30 38 -30 38 -33 38 C-32.31393677 37.33750244 -32.31393677 37.33750244 -31.61401367 36.66162109 C-19.77632458 25.17589942 -9.54117035 13.43207315 0 0 Z " fill="#768498" transform="translate(414,274)"/>
<path d="M0 0 C-0.33 0.66 -0.66 1.32 -1 2 C-3.31 2 -5.62 2 -8 2 C-8 2.66 -8 3.32 -8 4 C-15.26 4 -22.52 4 -30 4 C-30 3.67 -30 3.34 -30 3 C-25.93809157 2.49511485 -21.87538649 1.9969481 -17.8125 1.5 C-16.08676758 1.28537109 -16.08676758 1.28537109 -14.32617188 1.06640625 C-13.21435547 0.93105469 -12.10253906 0.79570312 -10.95703125 0.65625 C-9.42526245 0.46772461 -9.42526245 0.46772461 -7.86254883 0.27539062 C-5.21858939 0.02102932 -2.6537801 -0.05115721 0 0 Z " fill="#728095" transform="translate(303,352)"/>
<path d="M0 0 C2.05533376 6.16600129 -2.81927562 13.56324995 -5.53125 19.16015625 C-7.95370963 23.75170601 -10.17447262 27.43773472 -14 31 C-13.06262557 26.76581396 -11.16052711 23.14461446 -9.1875 19.3125 C-6.28731988 13.60517293 -3.53498694 7.8811697 -1 2 C-0.67 1.34 -0.34 0.68 0 0 Z " fill="#77869A" transform="translate(431,240)"/>
<path d="M0 0 C7.26 0 14.52 0 22 0 C22 0.66 22 1.32 22 2 C24.31 2 26.62 2 29 2 C29.33 2.66 29.66 3.32 30 4 C25.93711107 3.69242923 21.87477392 3.37808161 17.8125 3.0625 C16.66201172 2.97548828 15.51152344 2.88847656 14.32617188 2.79882812 C12.65844727 2.66831055 12.65844727 2.66831055 10.95703125 2.53515625 C9.42526245 2.41732788 9.42526245 2.41732788 7.86254883 2.29711914 C5.18861501 2.01957735 2.62420277 1.5754276 0 1 C0 0.67 0 0.34 0 0 Z " fill="#738096" transform="translate(273,0)"/>
<path d="M0 0 C1.4540625 0.0309375 1.4540625 0.0309375 2.9375 0.0625 C2.6075 0.7225 2.2775 1.3825 1.9375 2.0625 C-0.71110427 2.65605614 -3.35447322 2.80459269 -6.0625 3.0625 C-6.0625 3.7225 -6.0625 4.3825 -6.0625 5.0625 C-7.62366819 5.40201619 -9.18651338 5.73382544 -10.75 6.0625 C-12.05517578 6.3409375 -12.05517578 6.3409375 -13.38671875 6.625 C-15.99962964 7.05222047 -18.42063038 7.13866201 -21.0625 7.0625 C-17.70003639 4.82085759 -14.8306514 4.05123082 -10.9375 3 C-7.1536986 1.97473684 -3.71488842 0.07581405 0 0 Z " fill="#738197" transform="translate(324.0625,344.9375)"/>
<path d="M0 0 C0.99 0.495 0.99 0.495 2 1 C2 3.31 2 5.62 2 8 C2.66 8 3.32 8 4 8 C4 11.63 4 15.26 4 19 C3.34 18.67 2.68 18.34 2 18 C1.3671875 15.234375 1.3671875 15.234375 0.875 11.75 C0.70742188 10.61046875 0.53984375 9.4709375 0.3671875 8.296875 C0.05446696 5.48904378 -0.07420706 2.81986816 0 0 Z " fill="#818DA1" transform="translate(439,140)"/>
<path d="M0 0 C0.33 0 0.66 0 1 0 C1 3.63 1 7.26 1 11 C0.34 11 -0.32 11 -1 11 C-1 13.31 -1 15.62 -1 18 C-1.66 18.33 -2.32 18.66 -3 19 C-2.69035138 16.58293696 -2.37738885 14.16638113 -2.0625 11.75 C-1.97548828 11.06808594 -1.88847656 10.38617188 -1.79882812 9.68359375 C-1.3684062 6.39963389 -0.91205869 3.18809706 0 0 Z " fill="#8591A3" transform="translate(442,197)"/>
<path d="M0 0 C4.04665101 1.50739993 5.5639685 3.90234959 7.8125 7.5 C8.43769531 8.4796875 9.06289063 9.459375 9.70703125 10.46875 C10.13371094 11.3040625 10.56039063 12.139375 11 13 C10.67 13.66 10.34 14.32 10 15 C8.33048421 12.6895094 6.66428386 10.37675417 5 8.0625 C4.52304687 7.40314453 4.04609375 6.74378906 3.5546875 6.06445312 C0 1.11328125 0 1.11328125 0 0 Z " fill="#7B889B" transform="translate(404,67)"/>
<path d="M0 0 C2.32509781 2.13802098 3.82167236 4.18598137 5.25 7 C5.60578125 7.680625 5.9615625 8.36125 6.328125 9.0625 C7 11 7 11 6 14 C4.99515796 12.04414675 3.99626195 10.08523763 3 8.125 C2.1646875 6.48917969 2.1646875 6.48917969 1.3125 4.8203125 C0 2 0 2 0 0 Z " fill="#7B899C" transform="translate(421,92)"/>
<path d="M0 0 C1.18771723 3.42943519 0.80226223 5.37784675 -0.4375 8.75 C-0.86869141 9.94882813 -0.86869141 9.94882813 -1.30859375 11.171875 C-1.53675781 11.77515625 -1.76492188 12.3784375 -2 13 C-2.66 13 -3.32 13 -4 13 C-3.34 9.37 -2.68 5.74 -2 2 C-1.34 2 -0.68 2 0 2 C0 1.34 0 0.68 0 0 Z " fill="#7B8CA1" transform="translate(436,227)"/>
<path d="M0 0 C1.60517097 0.08733576 3.20921662 0.19552224 4.8125 0.3125 C6.15248047 0.39951172 6.15248047 0.39951172 7.51953125 0.48828125 C10.30604 1.06313581 11.24135754 1.8206856 13 4 C8.51474352 3.343621 4.33085971 2.29925791 0 1 C0 0.67 0 0.34 0 0 Z " fill="#6C7B90" transform="translate(303,4)"/>
<path d="M0 0 C1.4540625 0.0309375 1.4540625 0.0309375 2.9375 0.0625 C2.6075 0.7225 2.2775 1.3825 1.9375 2.0625 C-0.34765625 2.4765625 -0.34765625 2.4765625 -3.125 2.6875 C-4.04410156 2.76226562 -4.96320313 2.83703125 -5.91015625 2.9140625 C-6.62042969 2.96304687 -7.33070313 3.01203125 -8.0625 3.0625 C-7.423125 2.753125 -6.78375 2.44375 -6.125 2.125 C-2.0825 0.0425 -2.0825 0.0425 0 0 Z " fill="#6A7A8F" transform="translate(324.0625,344.9375)"/>
<path d="M0 0 C0.66 0 1.32 0 2 0 C5.22265625 5.17578125 5.22265625 5.17578125 6 7 C5.67 7.99 5.34 8.98 5 10 C4.16121545 8.71186658 3.32913217 7.41936744 2.5 6.125 C2.0359375 5.40570313 1.571875 4.68640625 1.09375 3.9453125 C0 2 0 2 0 0 Z " fill="#7A889B" transform="translate(415,82)"/>
</svg>
