<?xml version="1.0" standalone="no"?>
<!DOCTYPE svg PUBLIC "-//W3C//DTD SVG 20010904//EN"
 "http://www.w3.org/TR/2001/REC-SVG-20010904/DTD/svg10.dtd">
<svg version="1.0" xmlns="http://www.w3.org/2000/svg"
 width="752.000000pt" height="752.000000pt" viewBox="0 0 752.000000 752.000000"
 preserveAspectRatio="xMidYMid meet">
<metadata>
Created by potrace 1.14, written by Peter Selinger 2001-2017
</metadata>
<g transform="translate(0.000000,752.000000) scale(0.100000,-0.100000)"
fill="#000000" stroke="none">
<path d="M3656 7265 c-8 -8 -17 -15 -20 -15 -3 0 -63 -38 -133 -83 -71 -46
-168 -110 -218 -142 -49 -32 -141 -91 -202 -132 -62 -40 -166 -107 -230 -149
-65 -42 -144 -94 -175 -115 -32 -22 -60 -39 -64 -39 -3 0 -20 -11 -38 -25 -18
-14 -38 -25 -44 -25 -6 0 -12 -4 -14 -8 -1 -5 -41 -33 -88 -63 -47 -29 -91
-59 -98 -66 -7 -7 -20 -13 -28 -13 -8 0 -14 -4 -14 -10 0 -5 -16 -16 -35 -25
-19 -9 -39 -23 -46 -31 -6 -8 -15 -14 -20 -14 -5 0 -32 -16 -59 -35 -27 -19
-54 -35 -59 -35 -5 0 -11 -3 -13 -8 -1 -4 -41 -32 -88 -61 -47 -30 -86 -58
-88 -63 -2 -4 -8 -8 -13 -8 -7 0 -144 -84 -174 -108 -5 -4 -62 -41 -125 -82
-63 -40 -171 -111 -240 -155 -69 -45 -161 -105 -205 -133 -44 -29 -87 -57 -95
-62 -8 -6 -53 -35 -100 -65 -47 -30 -92 -59 -100 -65 -8 -6 -50 -33 -92 -61
-66 -42 -114 -89 -93 -89 3 0 1 -8 -4 -18 -6 -11 -12 -30 -15 -43 -3 -13 -28
-103 -56 -199 -28 -96 -53 -182 -55 -190 -2 -8 -18 -64 -35 -123 -17 -60 -33
-116 -35 -125 -2 -9 -16 -57 -30 -107 -15 -49 -29 -97 -31 -105 -2 -8 -10 -37
-18 -65 -62 -216 -78 -273 -82 -294 -3 -14 -7 -28 -10 -32 -4 -6 -75 -252 -90
-309 -2 -8 -20 -71 -40 -140 -20 -69 -37 -132 -39 -140 -2 -8 -13 -46 -25 -85
-12 -38 -23 -77 -25 -85 -2 -8 -9 -30 -14 -49 -6 -19 -9 -37 -6 -39 3 -3 0
-10 -5 -17 -5 -6 -12 -22 -14 -36 -3 -13 -5 -24 -6 -24 -1 0 -3 -9 -5 -19 -2
-11 8 -31 25 -47 16 -16 27 -29 24 -29 -4 0 20 -31 46 -59 9 -9 33 -38 55 -66
22 -27 42 -52 45 -55 6 -6 101 -119 112 -135 5 -5 20 -24 35 -41 16 -17 39
-46 53 -64 25 -35 70 -89 103 -125 10 -11 35 -41 55 -68 20 -26 40 -47 44 -47
4 0 8 -5 8 -10 0 -9 22 -36 65 -84 6 -6 28 -33 50 -61 22 -27 48 -59 59 -70
10 -11 30 -36 45 -55 14 -19 36 -46 48 -60 30 -34 52 -61 90 -107 17 -21 39
-48 50 -59 10 -12 32 -39 48 -60 17 -21 59 -72 93 -114 73 -86 73 -86 167
-200 38 -47 76 -94 85 -104 8 -11 25 -30 38 -43 12 -13 22 -26 22 -29 0 -2 13
-19 29 -37 36 -40 193 -230 223 -269 13 -16 39 -48 58 -70 48 -56 61 -72 88
-107 58 -75 100 -114 123 -116 13 -2 44 -6 69 -9 25 -4 79 -11 120 -17 41 -5
90 -12 108 -14 18 -3 54 -8 80 -11 48 -5 65 -7 137 -19 22 -3 56 -8 75 -10 19
-3 51 -7 70 -10 19 -3 58 -7 85 -10 28 -2 50 -5 50 -5 0 -3 40 -9 85 -14 25
-3 77 -10 115 -15 39 -6 90 -13 115 -16 25 -3 95 -12 155 -21 61 -8 130 -17
155 -20 25 -2 56 -6 70 -9 34 -6 76 -12 135 -19 28 -4 61 -8 75 -11 14 -2 45
-7 70 -10 25 -3 61 -7 80 -10 19 -3 53 -8 75 -10 22 -2 56 -7 75 -10 19 -3 51
-8 70 -10 19 -2 46 -6 60 -9 14 -2 51 -7 84 -11 32 -4 68 -8 80 -11 11 -2 41
-6 66 -8 25 -3 56 -8 70 -10 14 -2 52 -8 85 -11 33 -4 69 -9 80 -10 62 -8 112
-15 130 -19 11 -2 47 -7 80 -10 33 -4 89 -12 125 -17 64 -10 65 -10 89 18 13
15 44 51 70 79 25 27 69 77 98 110 28 32 62 71 75 85 12 14 50 56 83 94 33 37
65 73 70 79 6 6 62 70 125 141 63 72 119 135 125 141 5 6 33 37 60 69 28 31
61 70 75 85 14 15 40 45 59 66 19 22 51 57 70 79 20 23 65 74 101 115 36 41
72 81 80 90 8 9 42 47 75 85 55 65 80 92 145 164 14 15 48 53 75 85 28 32 66
75 85 96 19 21 44 49 54 62 10 12 37 43 60 68 23 25 59 66 81 91 22 25 69 78
105 119 84 94 83 93 109 175 13 39 25 77 28 85 3 8 7 20 9 25 1 6 23 74 48
152 26 79 46 144 46 145 -1 2 4 17 10 33 7 17 13 37 16 45 2 8 37 121 79 250
42 129 77 240 79 245 1 6 27 84 56 175 29 91 55 170 56 175 1 6 25 82 54 170
68 212 98 304 126 397 l23 77 -104 208 c-58 114 -105 214 -105 221 0 6 -3 12
-7 12 -9 0 -33 48 -33 66 0 7 -3 14 -8 16 -9 4 -232 451 -232 466 0 6 -3 12
-7 14 -5 2 -60 107 -123 235 l-115 231 -50 23 c-73 32 -231 103 -300 134 -33
15 -78 35 -100 45 -22 10 -65 29 -95 43 -30 13 -75 34 -100 45 -137 61 -169
76 -210 95 -25 11 -49 21 -55 23 -5 1 -89 38 -185 82 -96 44 -197 89 -225 102
-27 12 -68 30 -90 40 -56 26 -141 64 -200 89 -27 12 -70 32 -94 44 -25 12 -47
22 -50 23 -7 1 -59 24 -138 60 -29 13 -79 36 -110 50 -32 14 -78 35 -103 46
-25 11 -83 37 -130 58 -47 21 -105 47 -130 58 -169 77 -199 89 -204 84 -3 -3
-6 0 -6 6 0 6 -10 14 -22 17 -13 4 -48 19 -78 32 -30 14 -91 41 -135 60 -120
53 -164 73 -232 104 -73 34 -68 33 -87 14z"/>
</g>
</svg>
