<svg width="124" height="32" viewBox="0 0 124 32" fill="none" xmlns="http://www.w3.org/2000/svg">
<path d="M36.8701 10.0699H39.8701V22.1999H36.8701V10.0699ZM41.0601 17.6199C41.0601 14.6199 42.9001 12.8299 45.7401 12.8299C48.5801 12.8299 50.4201 14.6199 50.4201 17.6199C50.4201 20.6199 48.6201 22.4199 45.7401 22.4199C42.8601 22.4199 41.0601 20.6699 41.0601 17.6199ZM47.4101 17.6199C47.4101 15.9699 46.7601 14.9999 45.7401 14.9999C44.7201 14.9999 44.0801 15.9999 44.0801 17.6199C44.0801 19.2399 44.7101 20.2199 45.7401 20.2199C46.7701 20.2199 47.4101 19.2999 47.4101 17.6299V17.6199ZM51.5501 22.7899H54.4301C54.5672 23.0944 54.7989 23.3465 55.0908 23.5087C55.3827 23.6708 55.7192 23.7344 56.0501 23.6899C57.1901 23.6899 57.7901 23.0699 57.7901 22.1699V20.4899H57.7301C57.4911 21.0048 57.1032 21.4362 56.6166 21.7286C56.13 22.0209 55.5669 22.1607 55.0001 22.1299C52.8101 22.1299 51.3601 20.4599 51.3601 17.5899C51.3601 14.7199 52.7401 12.9099 55.0401 12.9099C55.6247 12.887 56.2023 13.0433 56.6956 13.3578C57.1889 13.6724 57.5743 14.1302 57.8001 14.6699V12.9999H60.8001V22.0999C60.8001 24.2899 58.8701 25.6499 56.0201 25.6499C53.3701 25.6499 51.7201 24.4599 51.5501 22.7999V22.7899ZM57.8001 17.6099C57.8001 16.1499 57.1301 15.2299 56.0701 15.2299C55.0101 15.2299 54.3601 16.1399 54.3601 17.6099C54.3601 19.0799 55.0001 19.9099 56.0701 19.9099C57.1401 19.9099 57.8001 19.0999 57.8001 17.6199V17.6099ZM61.9301 17.6099C61.9301 14.6099 63.7701 12.8199 66.6101 12.8199C69.4501 12.8199 71.3001 14.6099 71.3001 17.6099C71.3001 20.6099 69.5001 22.4099 66.6101 22.4099C63.7201 22.4099 61.9301 20.6699 61.9301 17.6199V17.6099ZM68.2801 17.6099C68.2801 15.9599 67.6301 14.9899 66.6101 14.9899C65.5901 14.9899 65.0001 15.9999 65.0001 17.6299C65.0001 19.2599 65.6301 20.2299 66.6501 20.2299C67.6701 20.2299 68.2801 19.2999 68.2801 17.6299V17.6099ZM72.4401 10.8199C72.4322 10.517 72.5145 10.2186 72.6764 9.96255C72.8384 9.70645 73.0727 9.50421 73.3497 9.38145C73.6267 9.25869 73.9339 9.22094 74.2324 9.27299C74.5309 9.32505 74.8072 9.46456 75.0263 9.67383C75.2455 9.88311 75.3975 10.1527 75.4632 10.4485C75.5289 10.7443 75.5053 11.0529 75.3953 11.3353C75.2854 11.6176 75.0941 11.861 74.8457 12.0345C74.5974 12.208 74.303 12.3039 74.0001 12.3099C73.7993 12.3237 73.5978 12.2958 73.4083 12.228C73.2187 12.1602 73.0453 12.054 72.8988 11.9159C72.7523 11.7779 72.6359 11.611 72.557 11.4258C72.478 11.2407 72.4382 11.0412 72.4401 10.8399V10.8199ZM72.4401 13.0199H75.4401V22.1999H72.4401V13.0199ZM86.3301 17.6099C86.3301 20.6099 85.0001 22.3199 82.7201 22.3199C82.1355 22.3574 81.5534 22.2145 81.0526 21.9105C80.5518 21.6064 80.1565 21.1559 79.9201 20.6199H79.8601V25.1399H76.8601V12.9999H79.8601V14.6399H79.9201C80.1455 14.095 80.5333 13.6328 81.0307 13.3161C81.5281 12.9994 82.111 12.8436 82.7001 12.8699C85.0001 12.9099 86.3701 14.6299 86.3701 17.6299L86.3301 17.6099ZM83.3301 17.6099C83.3301 16.1499 82.6601 15.2199 81.6101 15.2199C80.5601 15.2199 79.8901 16.1599 79.8801 17.6099C79.8701 19.0599 80.5601 19.9899 81.6101 19.9899C82.6601 19.9899 83.3301 19.0799 83.3301 17.6299V17.6099ZM91.4801 12.8099C93.9701 12.8099 95.4801 13.9899 95.5501 15.8799H92.8201C92.8201 15.2299 92.2801 14.8199 91.4501 14.8199C90.6201 14.8199 90.2501 15.1399 90.2501 15.6099C90.2501 16.0799 90.5801 16.2299 91.2501 16.3699L93.1701 16.7599C95.0001 17.1499 95.7801 17.8899 95.7801 19.2799C95.7801 21.1799 94.0501 22.3999 91.5001 22.3999C88.9501 22.3999 87.2801 21.1799 87.1501 19.3099H90.0401C90.1301 19.9899 90.6701 20.3899 91.5501 20.3899C92.4301 20.3899 92.8301 20.0999 92.8301 19.6199C92.8301 19.1399 92.5501 19.0399 91.8301 18.8899L90.1001 18.5199C88.3101 18.1499 87.3701 17.1999 87.3701 15.7999C87.3901 13.9999 89.0001 12.8299 91.4801 12.8299V12.8099ZM105.79 22.1799H102.9V20.4699H102.84C102.681 21.044 102.331 21.5465 101.847 21.894C101.363 22.2414 100.775 22.4129 100.18 22.3799C99.7243 22.4058 99.2683 22.3336 98.8428 22.1681C98.4173 22.0026 98.0323 21.7478 97.7138 21.4207C97.3953 21.0937 97.1506 20.702 96.9965 20.2723C96.8423 19.8426 96.7822 19.3848 96.8201 18.9299V12.9999H99.8201V18.2399C99.8201 19.3299 100.38 19.9099 101.31 19.9099C101.528 19.9103 101.744 19.8642 101.943 19.7745C102.141 19.6848 102.319 19.5536 102.463 19.3898C102.606 19.2259 102.714 19.0332 102.777 18.8246C102.84 18.6159 102.859 18.3961 102.83 18.1799V12.9999H105.83L105.79 22.1799ZM107.24 12.9999H110.14V14.7699H110.2C110.359 14.2034 110.702 13.7056 111.174 13.3546C111.646 13.0036 112.222 12.819 112.81 12.8299C113.409 12.782 114.003 12.9611 114.476 13.3317C114.948 13.7023 115.264 14.2371 115.36 14.8299H115.42C115.601 14.2308 115.977 13.7092 116.488 13.3471C116.998 12.985 117.615 12.803 118.24 12.8299C118.648 12.8162 119.054 12.8885 119.432 13.0421C119.811 13.1956 120.152 13.4271 120.435 13.7213C120.718 14.0156 120.936 14.3661 121.075 14.75C121.213 15.1339 121.27 15.5428 121.24 15.9499V22.1999H118.24V16.7499C118.24 15.7499 117.79 15.2899 116.95 15.2899C116.763 15.2883 116.577 15.3269 116.406 15.4031C116.235 15.4793 116.082 15.5913 115.958 15.7316C115.834 15.8719 115.741 16.0371 115.686 16.2162C115.631 16.3954 115.616 16.5842 115.64 16.7699V22.1999H112.79V16.7099C112.79 15.7899 112.34 15.2899 111.52 15.2899C111.331 15.29 111.143 15.3302 110.971 15.4079C110.798 15.4857 110.643 15.5992 110.518 15.7409C110.392 15.8826 110.298 16.0494 110.241 16.2303C110.185 16.4111 110.167 16.6018 110.19 16.7899V22.1999H107.19L107.24 12.9999Z" fill="#B4B7C9"/>
<path d="M28.4796 10.6199C27.9707 9.45625 27.2972 8.37182 26.4796 7.39989C25.2711 5.92023 23.7629 4.71328 22.0543 3.85849C20.3457 3.00371 18.4754 2.52046 16.5666 2.44055C14.6578 2.36064 12.7537 2.68588 10.9796 3.39488C9.20558 4.10387 7.60178 5.18054 6.27381 6.55402C4.94583 7.92749 3.92378 9.56664 3.27493 11.3636C2.62608 13.1605 2.36513 15.0745 2.50927 16.9795C2.65342 18.8846 3.19937 20.7375 4.11121 22.4163C5.02305 24.0952 6.2801 25.5619 7.79962 26.7199C8.77462 27.4778 9.85197 28.0939 10.9996 28.5499C12.6086 29.2093 14.3307 29.5489 16.0696 29.5499C19.659 29.542 23.0988 28.1112 25.6351 25.5712C28.1713 23.0312 29.597 19.5893 29.5996 15.9999C29.6022 14.1484 29.2209 12.3165 28.4796 10.6199ZM16.0596 5.18988C17.6212 5.18972 19.1639 5.53102 20.5796 6.18988C20.2344 6.33905 19.8714 6.44324 19.4996 6.49989C18.2762 6.67698 17.1429 7.24496 16.2688 8.11906C15.3947 8.99315 14.8267 10.1265 14.6496 11.3499C14.5719 12.036 14.2598 12.6743 13.7661 13.1571C13.2724 13.6399 12.6273 13.9375 11.9396 13.9999C10.7162 14.177 9.58288 14.745 8.70879 15.6191C7.8347 16.4932 7.26671 17.6265 7.08962 18.8499C7.02966 19.5023 6.75131 20.1154 6.29962 20.5899C5.52027 18.9432 5.17017 17.126 5.28189 15.3076C5.39361 13.4892 5.96352 11.7286 6.93859 10.1896C7.91365 8.65068 9.26219 7.3834 10.8587 6.50573C12.4552 5.62806 14.2478 5.16853 16.0696 5.16988L16.0596 5.18988ZM7.78962 22.9999C7.90962 22.8899 8.02962 22.7899 8.14962 22.6699C9.03927 21.8074 9.61033 20.6688 9.76962 19.4399C9.8342 18.7491 10.1426 18.1039 10.6396 17.6199C11.1179 17.1221 11.7616 16.8162 12.4496 16.7599C13.673 16.5828 14.8063 16.0148 15.6804 15.1407C16.5545 14.2666 17.1225 13.1333 17.2996 11.9099C17.3429 11.1874 17.6529 10.5067 18.1696 9.99989C18.6597 9.51174 19.3095 9.21699 19.9996 9.16988C21.1235 9.01525 22.1717 8.5156 22.9996 7.73989C23.9423 8.52196 24.7409 9.46278 25.3596 10.5199C25.3216 10.5712 25.278 10.6182 25.2296 10.6599C24.7523 11.1621 24.1094 11.4747 23.4196 11.5399C22.1949 11.7139 21.0599 12.2809 20.1852 13.1555C19.3106 14.0302 18.7436 15.1652 18.5696 16.3899C18.4991 17.0783 18.1928 17.7212 17.7026 18.2096C17.2123 18.6981 16.5683 19.002 15.8796 19.0699C14.6526 19.2456 13.5151 19.8125 12.6359 20.6862C11.7568 21.56 11.1829 22.694 10.9996 23.9199C10.9458 24.4086 10.7779 24.8779 10.5096 25.2899C9.48361 24.6807 8.56471 23.9071 7.78962 22.9999ZM16.0596 26.8599C15.0449 26.861 14.035 26.7196 13.0596 26.4399C13.3933 25.8179 13.6102 25.14 13.6996 24.4399C13.7697 23.753 14.0746 23.1113 14.5628 22.6231C15.051 22.1349 15.6927 21.83 16.3796 21.7599C17.6048 21.5848 18.7404 21.0177 19.6165 20.1434C20.4925 19.2692 21.062 18.1347 21.2396 16.9099C21.3097 16.223 21.6146 15.5813 22.1028 15.0931C22.591 14.6049 23.2327 14.3 23.9196 14.2299C24.8416 14.11 25.7204 13.7667 26.4796 13.2299C26.9012 14.8278 26.9511 16.501 26.6256 18.1212C26.3001 19.7414 25.6077 21.2656 24.6017 22.5767C23.5957 23.8877 22.3028 24.951 20.822 25.6848C19.3413 26.4186 17.7122 26.8035 16.0596 26.8099V26.8599Z" fill="#B4B7C9"/>
</svg>
