<svg width="140" height="30" viewBox="0 0 140 30" fill="none" xmlns="http://www.w3.org/2000/svg">
<path d="M22.4191 13.371C22.0401 13.7523 21.7499 14.2125 21.569 14.7187C21.3882 15.225 21.3213 15.7649 21.373 16.3L21.355 16.282C21.4082 16.9119 21.3232 17.5457 21.1061 18.1394C20.889 18.733 20.5451 19.2721 20.0982 19.7191C19.6512 20.166 19.112 20.5101 18.5183 20.7271C17.9247 20.9442 17.2908 21.0292 16.661 20.976L16.6791 20.994C15.9257 20.9239 15.1689 21.0878 14.512 21.4635C13.8552 21.8392 13.3302 22.4083 13.0087 23.0933C12.6872 23.7783 12.5847 24.5457 12.7153 25.2911C12.846 26.0364 13.2033 26.7233 13.7386 27.2581C14.2739 27.7929 14.9611 28.1496 15.7065 28.2795C16.452 28.4095 17.2193 28.3063 17.904 27.9842C18.5887 27.662 19.1573 27.1366 19.5324 26.4794C19.9075 25.8222 20.0708 25.0654 20 24.312L20.019 24.33C19.9658 23.7002 20.0507 23.0663 20.2678 22.4726C20.4849 21.879 20.829 21.3399 21.2759 20.8929C21.7229 20.446 22.262 20.1019 22.8556 19.8849C23.4494 19.6678 24.0831 19.5828 24.713 19.636L24.694 19.618C25.3095 19.6733 25.929 19.5724 26.4951 19.3246C27.0611 19.0768 27.5554 18.6901 27.9322 18.2004C28.309 17.7107 28.5562 17.1337 28.6507 16.5231C28.7451 15.9124 28.684 15.2878 28.4727 14.707C28.2615 14.1263 27.9071 13.6083 27.4424 13.201C26.9777 12.7937 26.4178 12.5103 25.8144 12.3771C25.2109 12.2439 24.5837 12.2651 23.9907 12.4388C23.3976 12.6126 22.8582 12.9332 22.4221 13.371H22.4191Z" fill="#B4B7C9"/>
<path d="M15.0422 18.636L15.0232 18.618C15.5585 18.6719 16.0991 18.6062 16.606 18.4256C17.1128 18.245 17.5732 17.9541 17.9538 17.5738C18.3343 17.1935 18.6257 16.7333 18.8066 16.2266C18.9876 15.7199 19.0537 15.1794 19.0002 14.644L19.0192 14.662C18.966 14.0321 19.051 13.3983 19.268 12.8046C19.4851 12.211 19.8292 11.6719 20.2761 11.2249C20.7231 10.778 21.2622 10.4339 21.8558 10.2169C22.4495 9.99976 23.0833 9.91483 23.7132 9.968L23.6942 9.95C24.4477 10.0208 25.2046 9.85736 25.8618 9.4821C26.5191 9.10684 27.0445 8.53797 27.3665 7.8531C27.6885 7.16824 27.7914 6.40071 27.6612 5.6552C27.531 4.90969 27.174 4.22251 26.6388 3.68737C26.1037 3.15224 25.4165 2.7952 24.671 2.66498C23.9255 2.53475 23.158 2.63766 22.4731 2.95968C21.7882 3.28169 21.2194 3.80714 20.8441 4.46435C20.4688 5.12155 20.3054 5.87852 20.3762 6.632L20.3582 6.613C20.4115 7.24289 20.3267 7.87683 20.1097 8.47055C19.8927 9.06427 19.5486 9.60346 19.1017 10.0505C18.6547 10.4974 18.1155 10.8415 17.5218 11.0585C16.928 11.2755 16.2941 11.3603 15.6642 11.307L15.6822 11.326C15.1469 11.2721 14.6062 11.3378 14.0994 11.5184C13.5926 11.6989 13.1322 11.9899 12.7516 12.3702C12.371 12.7505 12.0797 13.2107 11.8987 13.7174C11.7178 14.2241 11.6517 14.7646 11.7052 15.3L11.6872 15.282C11.7402 15.9118 11.6551 16.5456 11.438 17.1392C11.2208 17.7327 10.8768 18.2718 10.4299 18.7187C9.98291 19.1656 9.44387 19.5096 8.85031 19.7268C8.25675 19.9439 7.62296 20.029 6.99315 19.976L7.01115 19.994C6.25767 19.9232 5.5007 20.0866 4.84349 20.4619C4.18629 20.8372 3.66084 21.406 3.33883 22.0909C3.01681 22.7758 2.91389 23.5433 3.04412 24.2888C3.17435 25.0343 3.53139 25.7215 4.06652 26.2566C4.60166 26.7918 5.28884 27.1488 6.03435 27.279C6.77986 27.4092 7.54739 27.3063 8.23226 26.9843C8.91712 26.6623 9.48599 26.1369 9.86125 25.4797C10.2366 24.8224 10.4 24.0655 10.3292 23.312L10.3482 23.33C10.295 22.7001 10.38 22.0663 10.5971 21.4726C10.8141 20.879 11.1582 20.3399 11.6051 19.8929C12.0521 19.446 12.5912 19.1019 13.1848 18.8849C13.7785 18.6678 14.4123 18.5828 15.0422 18.636Z" fill="#B4B7C9"/>
<path d="M8.34021 16.6289C8.71923 16.2477 9.00941 15.7875 9.19005 15.2812C9.37069 14.7749 9.43733 14.2349 9.38521 13.6999L9.4042 13.7179C9.351 13.0879 9.43596 12.4538 9.65317 11.86C9.87038 11.2662 10.2146 10.727 10.6618 10.28C11.109 9.83306 11.6483 9.48907 12.2422 9.27212C12.8361 9.05516 13.4702 8.97046 14.1002 9.02394L14.0812 9.00594C14.8344 9.07651 15.5911 8.91302 16.248 8.53778C16.9049 8.16255 17.43 7.59382 17.7519 6.90917C18.0737 6.22451 18.1765 5.45726 18.0463 4.71203C17.9161 3.9668 17.5591 3.27988 17.0242 2.74494C16.4893 2.21 15.8023 1.85308 15.0571 1.72286C14.3119 1.59263 13.5446 1.69545 12.86 2.01727C12.1753 2.33909 11.6066 2.86426 11.2314 3.52116C10.8561 4.17806 10.6926 4.93472 10.7632 5.68794L10.7452 5.66994C10.7984 6.29979 10.7134 6.93366 10.4963 7.5273C10.2792 8.12094 9.93523 8.66005 9.48827 9.10701C9.04132 9.55397 8.5022 9.898 7.90856 10.115C7.31492 10.3321 6.68106 10.4171 6.05121 10.3639L6.06921 10.3819C5.45378 10.3267 4.83437 10.4278 4.26839 10.6757C3.70241 10.9236 3.20816 11.3104 2.83145 11.8002C2.45474 12.2899 2.20776 12.8669 2.11338 13.4775C2.01901 14.0882 2.0803 14.7128 2.29157 15.2934C2.50284 15.8741 2.85727 16.392 3.322 16.7992C3.78673 17.2065 4.34673 17.4898 4.95011 17.623C5.55348 17.7561 6.18071 17.7348 6.77368 17.5611C7.36664 17.3873 7.90614 17.0667 8.3422 16.6289H8.34021Z" fill="#B4B7C9"/>
<path d="M39.3174 6.65503H42.2874V21.108H39.3174V6.65503Z" fill="#B4B7C9"/>
<path d="M43.9689 16.1591C43.9648 15.1205 44.269 14.1039 44.843 13.2383C45.417 12.3727 46.235 11.6969 47.1934 11.2966C48.1518 10.8962 49.2074 10.7893 50.2266 10.9894C51.2458 11.1895 52.1827 11.6875 52.9186 12.4205C53.6545 13.1534 54.1563 14.0883 54.3605 15.1067C54.5647 16.1251 54.462 17.1812 54.0655 18.1412C53.669 19.1011 52.9965 19.9219 52.1332 20.4993C51.2698 21.0768 50.2546 21.3851 49.2159 21.3851C48.5265 21.393 47.8424 21.2633 47.2036 21.0037C46.5648 20.7441 45.9842 20.3598 45.4957 19.8733C45.0071 19.3867 44.6205 18.8076 44.3584 18.1699C44.0962 17.5322 43.9638 16.8486 43.9689 16.1591ZM51.4929 16.1591C51.4805 15.7114 51.3364 15.2773 51.0787 14.911C50.8209 14.5448 50.4609 14.2626 50.0437 14.0999C49.6264 13.9371 49.1705 13.9009 48.7328 13.9959C48.2951 14.0909 47.8951 14.3127 47.5828 14.6338C47.2706 14.9548 47.0598 15.3608 46.9771 15.801C46.8943 16.2411 46.943 16.6959 47.1173 17.1085C47.2916 17.5211 47.5836 17.8731 47.9568 18.1206C48.3301 18.3681 48.7681 18.5001 49.2159 18.5001C49.5226 18.5083 49.8277 18.4528 50.112 18.3372C50.3962 18.2216 50.6534 18.0484 50.8673 17.8285C51.0812 17.6085 51.2473 17.3466 51.3549 17.0593C51.4626 16.772 51.5096 16.4655 51.4929 16.1591Z" fill="#B4B7C9"/>
<path d="M66.3 11.2091V20.6091C66.3 23.9351 63.706 25.3411 61.073 25.3411C60.146 25.4105 59.2177 25.2232 58.39 24.7999C57.5624 24.3765 56.8673 23.7334 56.381 22.9411L58.915 21.4761C59.1194 21.8891 59.4451 22.2298 59.8484 22.4527C60.2518 22.6755 60.7136 22.7699 61.172 22.7231C61.465 22.7637 61.7634 22.7379 62.0451 22.6476C62.3267 22.5573 62.5845 22.4048 62.7993 22.2015C63.0141 21.9981 63.1804 21.7491 63.286 21.4727C63.3915 21.1964 63.4335 20.8999 63.409 20.6051V19.7001C63.0612 20.1256 62.6186 20.4637 62.1165 20.6872C61.6144 20.9107 61.067 21.0134 60.518 20.9871C59.2118 20.9459 57.9729 20.3981 57.0635 19.4595C56.1541 18.521 55.6456 17.2654 55.6456 15.9586C55.6456 14.6518 56.1541 13.3962 57.0635 12.4577C57.9729 11.5191 59.2118 10.9713 60.518 10.9301C61.067 10.9038 61.6144 11.0065 62.1165 11.23C62.6186 11.4535 63.0612 11.7916 63.409 12.2171V11.2071L66.3 11.2091ZM63.41 15.9601C63.43 15.4815 63.3062 15.0078 63.0547 14.6001C62.8032 14.1923 62.4354 13.8692 61.9987 13.6723C61.562 13.4753 61.0764 13.4136 60.6043 13.495C60.1322 13.5764 59.6953 13.7972 59.3497 14.1291C59.0042 14.4609 58.7659 14.8885 58.6654 15.3569C58.565 15.8253 58.607 16.3131 58.7862 16.7574C58.9653 17.2017 59.2733 17.5823 59.6705 17.8501C60.0677 18.1179 60.536 18.2607 61.015 18.2601C61.3271 18.2819 61.6402 18.2381 61.9343 18.1315C62.2284 18.0249 62.4969 17.8578 62.7225 17.6412C62.9481 17.4245 63.1259 17.163 63.2443 16.8734C63.3627 16.5839 63.4192 16.2728 63.41 15.9601Z" fill="#B4B7C9"/>
<path d="M67.9816 16.1591C67.9775 15.1205 68.2816 14.1039 68.8557 13.2383C69.4297 12.3727 70.2477 11.6969 71.2061 11.2966C72.1645 10.8962 73.2201 10.7893 74.2393 10.9894C75.2585 11.1895 76.1954 11.6875 76.9313 12.4205C77.6672 13.1534 78.169 14.0883 78.3732 15.1067C78.5774 16.1251 78.4747 17.1812 78.0782 18.1412C77.6817 19.1011 77.0092 19.9219 76.1459 20.4993C75.2825 21.0768 74.2673 21.3851 73.2286 21.3851C72.5392 21.393 71.855 21.2633 71.2163 21.0037C70.5775 20.7441 69.9969 20.3598 69.5084 19.8733C69.0198 19.3867 68.6332 18.8076 68.3711 18.1699C68.1089 17.5322 67.9765 16.8486 67.9816 16.1591ZM75.5056 16.1591C75.4932 15.7114 75.3491 15.2773 75.0914 14.911C74.8336 14.5448 74.4736 14.2626 74.0564 14.0999C73.6391 13.9371 73.1831 13.9009 72.7455 13.9959C72.3078 14.0909 71.9078 14.3127 71.5955 14.6338C71.2833 14.9548 71.0725 15.3608 70.9897 15.801C70.9069 16.2411 70.9557 16.6959 71.13 17.1085C71.3043 17.5211 71.5963 17.8731 71.9695 18.1206C72.3428 18.3681 72.7807 18.5001 73.2286 18.5001C73.5353 18.5083 73.8404 18.4528 74.1246 18.3372C74.4089 18.2216 74.6661 18.0484 74.88 17.8285C75.0939 17.6085 75.26 17.3466 75.3676 17.0593C75.4753 16.772 75.5223 16.4655 75.5056 16.1591Z" fill="#B4B7C9"/>
<path d="M79.8613 8.55593C79.8613 8.20348 79.9658 7.85895 80.1616 7.56591C80.3574 7.27286 80.6358 7.04445 80.9614 6.90958C81.287 6.7747 81.6453 6.73941 81.991 6.80817C82.3366 6.87693 82.6542 7.04665 82.9034 7.29587C83.1526 7.54508 83.3223 7.8626 83.3911 8.20828C83.4598 8.55395 83.4245 8.91225 83.2897 9.23787C83.1548 9.56349 82.9264 9.8418 82.6333 10.0376C82.3403 10.2334 81.9958 10.3379 81.6433 10.3379C81.1722 10.3332 80.7216 10.144 80.3884 9.81081C80.0553 9.47763 79.866 9.02709 79.8613 8.55593ZM80.1613 11.2089H83.1323V21.1089H80.1573L80.1613 11.2089Z" fill="#B4B7C9"/>
<path d="M95.9557 16.159C95.99 16.8133 95.8947 17.4679 95.6751 18.0852C95.4556 18.7025 95.1162 19.2703 94.6764 19.756C94.2367 20.2416 93.7052 20.6356 93.1127 20.9152C92.5201 21.1947 91.8782 21.3544 91.2237 21.385C90.6733 21.415 90.1232 21.3222 89.6131 21.1133C89.103 20.9043 88.6459 20.5845 88.2747 20.177V25.068H85.3047V11.209H88.2747V12.139C88.646 11.7318 89.1033 11.4122 89.6133 11.2035C90.1234 10.9947 90.6734 10.902 91.2237 10.932C91.8783 10.9625 92.5204 11.1221 93.1131 11.4017C93.7058 11.6813 94.2373 12.0753 94.6771 12.5611C95.1169 13.0469 95.4563 13.6149 95.6757 14.2324C95.8951 14.8498 95.9903 15.5046 95.9557 16.159ZM92.9857 16.159C92.9741 15.6957 92.8261 15.2461 92.5602 14.8664C92.2943 14.4868 91.9224 14.194 91.491 14.0248C91.0595 13.8555 90.5877 13.8172 90.1346 13.9148C89.6815 14.0123 89.2673 14.2413 88.9437 14.5731C88.6201 14.905 88.4016 15.3248 88.3155 15.7803C88.2294 16.2357 88.2795 16.7063 88.4596 17.1334C88.6396 17.5605 88.9417 17.9249 89.3279 18.1812C89.7141 18.4374 90.1672 18.5741 90.6307 18.574C90.9489 18.5882 91.2665 18.5349 91.5627 18.4177C91.8588 18.3006 92.1269 18.1221 92.3492 17.8941C92.5716 17.666 92.7432 17.3936 92.8529 17.0946C92.9626 16.7956 93.0079 16.4767 92.9857 16.159Z" fill="#B4B7C9"/>
<path d="M105.121 18.138C105.121 20.415 103.142 21.385 101.004 21.385C100.14 21.4632 99.2726 21.2806 98.5137 20.8605C97.7548 20.4405 97.1394 19.8025 96.7469 19.029L99.3199 17.564C99.424 17.9215 99.6476 18.2326 99.9533 18.4451C100.259 18.6577 100.629 18.759 101 18.732C101.712 18.732 102.069 18.514 102.069 18.119C102.069 17.029 97.1979 17.604 97.1979 14.179C97.1979 12.02 99.0199 10.932 101.079 10.932C101.853 10.9075 102.619 11.0911 103.298 11.4636C103.977 11.8362 104.544 12.384 104.939 13.05L102.405 14.416C102.294 14.1567 102.109 13.9358 101.873 13.7809C101.637 13.626 101.361 13.544 101.079 13.545C100.564 13.545 100.247 13.745 100.247 14.099C100.251 15.228 105.121 14.475 105.121 18.138Z" fill="#B4B7C9"/>
<path d="M115.97 11.209V21.109H113V20.178C112.657 20.5888 112.222 20.9125 111.73 21.1225C111.238 21.3325 110.704 21.4228 110.17 21.386C108.17 21.386 106.47 19.961 106.47 17.286V11.209H109.44V16.851C109.415 17.0868 109.442 17.3252 109.519 17.5495C109.595 17.7739 109.72 17.9789 109.884 18.1502C110.048 18.3215 110.247 18.455 110.468 18.5415C110.688 18.628 110.925 18.6654 111.162 18.651C112.251 18.651 113.003 18.018 113.003 16.612V11.212L115.97 11.209Z" fill="#B4B7C9"/>
<path d="M133 15.03V21.108H130.03V15.287C130.03 14.297 129.555 13.664 128.605 13.664C127.615 13.664 127.06 14.357 127.06 15.525V21.108H124.091V15.287C124.091 14.297 123.616 13.664 122.665 13.664C121.675 13.664 121.121 14.357 121.121 15.525V21.108H118.151V11.208H121.121V12.118C121.429 11.7143 121.833 11.3941 122.296 11.1868C122.76 10.9794 123.268 10.8915 123.774 10.931C124.282 10.9061 124.788 11.0134 125.243 11.2423C125.697 11.4711 126.084 11.8139 126.367 12.237C126.696 11.7943 127.132 11.4423 127.634 11.2139C128.136 10.9855 128.688 10.8882 129.238 10.931C131.511 10.932 133 12.555 133 15.03Z" fill="#B4B7C9"/>
<path d="M135.512 11.148C136.729 11.148 137.716 10.1612 137.716 8.94399C137.716 7.72675 136.729 6.73999 135.512 6.73999C134.295 6.73999 133.308 7.72675 133.308 8.94399C133.308 10.1612 134.295 11.148 135.512 11.148Z" fill="#B4B7C9"/>
</svg>
