<svg width="134" height="34" viewBox="0 0 134 34" fill="none" xmlns="http://www.w3.org/2000/svg">
<path d="M15.4498 6.6499V2.3999H2.0498V31.5999H15.4498V27.3499C12.7048 27.3499 10.0722 26.2594 8.13124 24.3184C6.19024 22.3774 5.0998 19.7449 5.0998 16.9999C5.0998 14.2549 6.19024 11.6223 8.13124 9.68135C10.0722 7.74035 12.7048 6.6499 15.4498 6.6499Z" fill="#B4B7C9"/>
<path d="M15.4502 6.6499V27.3499C18.1952 27.3499 20.8278 26.2594 22.7688 24.3184C24.7098 22.3774 25.8002 19.7449 25.8002 16.9999C25.8002 14.2549 24.7098 11.6223 22.7688 9.68135C20.8278 7.74035 18.1952 6.6499 15.4502 6.6499Z" fill="#B4B7C9"/>
<path d="M33.3203 9.25H36.3203V23.7H33.3203V9.25Z" fill="#B4B7C9"/>
<path d="M38.0005 18.7499C38.0005 17.7103 38.3092 16.6941 38.8874 15.8301C39.4656 14.9661 40.2873 14.2932 41.2484 13.8967C42.2095 13.5003 43.2666 13.3981 44.2858 13.6031C45.305 13.8081 46.2404 14.3111 46.9734 15.0483C47.7064 15.7856 48.2041 16.7238 48.4033 17.7442C48.6024 18.7646 48.4942 19.8211 48.0922 20.7799C47.6902 21.7386 47.0127 22.5565 46.1454 23.1297C45.2781 23.703 44.2601 24.0058 43.2205 23.9999C42.531 24.0053 41.8473 23.873 41.2096 23.6106C40.5719 23.3483 39.9929 22.9613 39.5067 22.4724C39.0205 21.9834 38.6369 21.4022 38.3782 20.763C38.1196 20.1238 37.9912 19.4394 38.0005 18.7499ZM45.5205 18.7499C45.5087 18.3017 45.365 17.8669 45.1074 17.5C44.8498 17.133 44.4898 16.8501 44.0722 16.6867C43.6547 16.5233 43.1983 16.4866 42.7601 16.5813C42.3218 16.6759 41.9212 16.8976 41.6083 17.2188C41.2954 17.5399 41.0841 17.9461 41.0009 18.3867C40.9177 18.8273 40.9662 19.2826 41.1404 19.6957C41.3146 20.1088 41.6067 20.4615 41.9803 20.7094C42.3538 20.9574 42.7921 21.0897 43.2405 21.0899C43.5458 21.0959 43.849 21.0388 44.1312 20.9222C44.4134 20.8057 44.6685 20.6322 44.8806 20.4126C45.0927 20.193 45.2572 19.9319 45.3639 19.6459C45.4706 19.3598 45.5171 19.0548 45.5005 18.7499H45.5205Z" fill="#B4B7C9"/>
<path d="M60.3103 13.8001V23.2101C60.3103 26.5301 57.7103 27.9401 55.0803 27.9401C54.1526 28.0162 53.2221 27.8319 52.3936 27.4079C51.565 26.9839 50.8712 26.337 50.3903 25.5401L52.9203 24.0801C53.1253 24.4935 53.4514 24.8345 53.8552 25.0578C54.259 25.2811 54.7212 25.3761 55.1803 25.3301C55.4728 25.3661 55.7696 25.3371 56.0495 25.2451C56.3295 25.153 56.5856 25.0003 56.7996 24.7977C57.0137 24.5951 57.1803 24.3478 57.2876 24.0733C57.3949 23.7989 57.4402 23.5041 57.4203 23.2101V22.3001C57.0712 22.7234 56.6282 23.0594 56.1266 23.2816C55.6249 23.5038 55.0784 23.606 54.5303 23.5801C53.2042 23.5801 51.9325 23.0533 50.9948 22.1156C50.0571 21.178 49.5303 19.9062 49.5303 18.5801C49.5303 17.254 50.0571 15.9823 50.9948 15.0446C51.9325 14.1069 53.2042 13.5801 54.5303 13.5801C55.0784 13.5542 55.6249 13.6564 56.1266 13.8786C56.6282 14.1008 57.0712 14.4368 57.4203 14.8601V13.8601L60.3103 13.8001ZM57.4203 18.5501C57.4402 18.0717 57.3166 17.5982 57.0653 17.1906C56.814 16.783 56.4466 16.4599 56.0101 16.2628C55.5737 16.0657 55.0884 16.0037 54.6164 16.0847C54.1445 16.1657 53.7075 16.386 53.3618 16.7173C53.0161 17.0486 52.7774 17.4758 52.6764 17.9439C52.5754 18.412 52.6167 18.8995 52.795 19.3439C52.9734 19.7883 53.2806 20.1692 53.6771 20.4376C54.0737 20.706 54.5415 20.8497 55.0203 20.8501C55.3328 20.8726 55.6465 20.8293 55.9411 20.7231C56.2358 20.6168 56.505 20.4499 56.7311 20.2331C56.9573 20.0164 57.1355 19.7546 57.2542 19.4647C57.3729 19.1748 57.4295 18.8632 57.4203 18.5501Z" fill="#B4B7C9"/>
<path d="M62.0003 18.75C62.0003 17.7112 62.3085 16.6958 62.8858 15.8322C63.4631 14.9686 64.2837 14.2957 65.2436 13.8987C66.2035 13.5016 67.2595 13.3982 68.2782 13.6016C69.2969 13.805 70.2323 14.306 70.9662 15.0412C71.7 15.7765 72.1992 16.7129 72.4006 17.7319C72.6021 18.751 72.4968 19.8069 72.0979 20.766C71.699 21.7252 71.0244 22.5444 70.1598 23.1201C69.2951 23.6958 68.2791 24.002 67.2403 24C66.5495 24.0067 65.8643 23.8754 65.2249 23.6138C64.5855 23.3522 64.0046 22.9656 63.5166 22.4766C63.0285 21.9876 62.643 21.4061 62.3826 20.7662C62.1223 20.1263 61.9923 19.4408 62.0003 18.75ZM69.5203 18.75C69.5085 18.3014 69.3645 17.8662 69.1065 17.499C68.8485 17.1319 68.4878 16.849 68.0697 16.6859C67.6516 16.5228 67.1947 16.4867 66.7562 16.5822C66.3177 16.6776 65.9171 16.9004 65.6046 17.2225C65.2921 17.5446 65.0816 17.9518 64.9996 18.393C64.9175 18.8342 64.9674 19.2898 65.1431 19.7027C65.3188 20.1157 65.6125 20.4676 65.9874 20.7144C66.3622 20.9611 66.8015 21.0918 67.2503 21.09C67.5556 21.096 67.8588 21.0389 68.141 20.9223C68.4232 20.8058 68.6783 20.6323 68.8904 20.4127C69.1025 20.1931 69.267 19.932 69.3737 19.646C69.4804 19.3599 69.527 19.0549 69.5104 18.75H69.5203Z" fill="#B4B7C9"/>
<path d="M73.8701 11.1501C73.8701 10.7981 73.9745 10.4539 74.1701 10.1612C74.3657 9.86848 74.6437 9.64034 74.9689 9.50561C75.2942 9.37089 75.6521 9.33564 75.9974 9.40432C76.3426 9.473 76.6598 9.64253 76.9088 9.89147C77.1577 10.1404 77.3272 10.4576 77.3959 10.8028C77.4646 11.1481 77.4293 11.506 77.2946 11.8313C77.1599 12.1565 76.9317 12.4345 76.639 12.6301C76.3463 12.8257 76.0022 12.9301 75.6501 12.9301C75.1796 12.9249 74.7299 12.7357 74.3972 12.403C74.0645 12.0703 73.8753 11.6206 73.8701 11.1501ZM74.1601 13.8001H77.1601V23.7001H74.1601V13.8001Z" fill="#B4B7C9"/>
<path d="M90.0005 18.7501C90.0341 19.4085 89.9372 20.0671 89.7153 20.6879C89.4935 21.3087 89.151 21.8795 88.7077 22.3674C88.2643 22.8554 87.7289 23.2508 87.1321 23.531C86.5354 23.8112 85.8891 23.9706 85.2305 24.0001C84.6716 24.0373 84.1115 23.9478 83.5921 23.7383C83.0726 23.5287 82.6072 23.2046 82.2305 22.7901V27.6801H79.2305V13.8001H82.2305V14.7301C82.6077 14.3168 83.0735 13.9942 83.593 13.7864C84.1125 13.5785 84.6723 13.4909 85.2305 13.5301C85.8865 13.5596 86.5302 13.7181 87.1249 13.9964C87.7196 14.2747 88.2537 14.6675 88.6966 15.1522C89.1396 15.6369 89.4827 16.2041 89.7064 16.8215C89.9301 17.4388 90.0301 18.0941 90.0005 18.7501ZM87.0005 18.7501C86.9887 18.2856 86.84 17.835 86.5732 17.4547C86.3064 17.0744 85.9332 16.7812 85.5005 16.6121C85.0678 16.4429 84.5948 16.4053 84.1407 16.5038C83.6867 16.6023 83.2719 16.8327 82.9482 17.166C82.6245 17.4993 82.4064 17.9207 82.3213 18.3775C82.2361 18.8342 82.2876 19.3059 82.4694 19.7335C82.6512 20.161 82.9551 20.5254 83.3431 20.781C83.7311 21.0366 84.1859 21.1719 84.6505 21.1701C84.9687 21.1836 85.2862 21.1297 85.5821 21.0119C85.8781 20.8941 86.1458 20.7151 86.3677 20.4866C86.5896 20.2581 86.7606 19.9852 86.8697 19.686C86.9788 19.3867 87.0233 19.0678 87.0005 18.7501Z" fill="#B4B7C9"/>
<path d="M99.13 20.73C99.13 23.01 97.13 23.98 95.01 23.98C94.1453 24.0578 93.2772 23.8745 92.5178 23.4538C91.7584 23.0331 91.1426 22.3943 90.75 21.62L93.33 20.16C93.4322 20.5168 93.6538 20.8277 93.9578 21.0407C94.2618 21.2537 94.6297 21.3558 95 21.33C95.71 21.33 96.07 21.11 96.07 20.71C96.07 19.62 91.2 20.2 91.2 16.77C91.2 14.61 93.02 13.53 95.08 13.53C95.863 13.4949 96.641 13.6726 97.3311 14.0441C98.0213 14.4156 98.598 14.9671 99 15.64L96.42 17C96.306 16.742 96.1198 16.5226 95.8838 16.3682C95.6477 16.2138 95.372 16.1311 95.09 16.13C94.57 16.13 94.26 16.33 94.26 16.68C94.26 17.82 99.13 17.07 99.13 20.73Z" fill="#B4B7C9"/>
<path d="M110 13.8V23.7H107V22.77C106.659 23.1817 106.226 23.5074 105.737 23.7211C105.247 23.9348 104.714 24.0303 104.18 24C102.18 24 100.47 22.57 100.47 19.9V13.8H103.47V19.45C103.446 19.6862 103.474 19.9247 103.552 20.1491C103.63 20.3734 103.755 20.5782 103.919 20.7494C104.084 20.9205 104.284 21.0539 104.505 21.1404C104.726 21.2268 104.963 21.2642 105.2 21.25C106.28 21.25 107.04 20.61 107.04 19.25V13.8H110Z" fill="#B4B7C9"/>
<path d="M127 17.62V23.7H124V17.88C124 16.88 123.53 16.26 122.58 16.26C121.63 16.26 121.03 16.95 121.03 18.12V23.7H118.03V17.88C118.03 16.88 117.56 16.26 116.61 16.26C115.66 16.26 115.06 16.95 115.06 18.12V23.7H112.06V13.8H115.06V14.71C115.371 14.308 115.776 13.9896 116.241 13.7836C116.705 13.5776 117.214 13.4904 117.72 13.53C118.227 13.5035 118.733 13.6095 119.187 13.8374C119.641 14.0653 120.028 14.4074 120.31 14.83C120.64 14.3884 121.076 14.0376 121.578 13.8103C122.079 13.5829 122.631 13.4865 123.18 13.53C125.52 13.53 127 15.15 127 17.62Z" fill="#B4B7C9"/>
<path d="M129.52 13.7401C130.735 13.7401 131.72 12.7551 131.72 11.5401C131.72 10.3251 130.735 9.34009 129.52 9.34009C128.305 9.34009 127.32 10.3251 127.32 11.5401C127.32 12.7551 128.305 13.7401 129.52 13.7401Z" fill="#B4B7C9"/>
</svg>
