<svg width="152" height="19" viewBox="0 0 152 19" fill="none" xmlns="http://www.w3.org/2000/svg">
<path d="M75.693 16.3741H70.573V2.68611H75.693V16.3741ZM71.073 15.8741H75.193V3.18611H71.073V15.8741ZM82.817 16.3741H77.8V2.68611H88.282C89.7836 2.56451 91.279 2.98608 92.496 3.87411C93.0199 4.35342 93.426 4.9473 93.6825 5.6094C93.9391 6.27151 94.0392 6.98394 93.975 7.69111C94.0498 8.91308 93.6609 10.1183 92.886 11.0661C91.969 12.1181 90.443 12.6601 88.351 12.6791C87.824 12.6931 83.875 12.6791 82.82 12.6791L82.817 16.3741ZM78.297 15.8741H82.317V12.1741H82.568C82.619 12.1741 87.746 12.1901 88.339 12.1741C90.288 12.1571 91.689 11.6741 92.508 10.7311C93.1978 9.87356 93.5404 8.78826 93.468 7.69011C93.5295 7.05648 93.4442 6.4172 93.2188 5.82185C92.9933 5.2265 92.6338 4.69108 92.168 4.25711C91.0396 3.44721 89.659 3.06704 88.275 3.18511H78.3L78.297 15.8741ZM87.22 9.60411H82.283V5.87811H87.253C87.6053 5.82943 87.9642 5.87055 88.2963 5.99764C88.6285 6.12474 88.9232 6.33369 89.153 6.60511C89.3615 6.95205 89.4598 7.35409 89.435 7.75811C89.4537 8.13321 89.3727 8.50658 89.2 8.84011C88.9629 9.12599 88.6562 9.34606 88.3094 9.47916C87.9627 9.61226 87.5875 9.65391 87.22 9.60011V9.60411ZM82.783 9.10411H87.22C88.04 9.10411 88.548 8.93311 88.773 8.58111C88.8969 8.32526 88.953 8.04187 88.936 7.75811C88.9579 7.46017 88.8933 7.16225 88.75 6.90011L88.744 6.89111C88.506 6.54111 88.033 6.37811 87.253 6.37811H82.783V9.10411ZM103.1 16.5761C98.61 16.5761 95.93 15.4611 94.909 13.1681C94.7419 12.7252 94.6285 12.2639 94.571 11.7941L94.527 11.5061H99.869L99.904 11.7161C99.9451 11.9293 100.036 12.13 100.168 12.3021C100.379 12.5571 101.083 12.9851 103.419 12.9851C106.227 12.9851 106.227 12.4921 106.227 12.2271C106.227 11.7801 105.902 11.6271 103.612 11.3831L103.177 11.3421C102.315 11.2611 101.225 11.1581 100.727 11.1151C96.527 10.7351 94.652 9.43011 94.652 6.88511C94.652 4.21211 97.843 2.48511 102.782 2.48511C106.811 2.48511 109.407 3.54711 110.496 5.64411C110.754 6.13189 110.928 6.6601 111.009 7.20611L111.044 7.48711H105.696L105.674 7.26111C105.653 7.08449 105.578 6.9188 105.458 6.78711C105.258 6.51911 104.626 6.07611 102.664 6.07611C100.255 6.07611 99.923 6.38411 99.923 6.71611C99.923 7.15911 100.684 7.31611 103.123 7.57711C104.14 7.66011 105.775 7.82811 106.335 7.89611C109.856 8.27811 111.427 9.55111 111.427 12.0251C111.428 14.1001 109.983 16.5761 103.1 16.5761ZM95.111 12.0061C95.1611 12.3359 95.2473 12.6591 95.368 12.9701C96.298 15.0591 98.828 16.0761 103.1 16.0761C106.672 16.0761 110.931 15.3761 110.931 12.0251C110.931 9.83211 109.541 8.74611 106.282 8.39311C105.722 8.32511 104.097 8.15811 103.082 8.07411C100.482 7.79211 99.425 7.64211 99.425 6.71611C99.425 5.75811 100.564 5.57611 102.666 5.57611C104.327 5.57611 105.4 5.87611 105.855 6.48111C105.979 6.63016 106.073 6.80206 106.131 6.98711H110.465C110.378 6.60036 110.24 6.2268 110.055 5.87611C109.055 3.95711 106.612 2.98511 102.784 2.98511C98.149 2.98511 95.154 4.51611 95.154 6.88511C95.154 9.14511 96.835 10.2611 100.773 10.6171C101.273 10.6601 102.362 10.7631 103.226 10.8451L103.664 10.8861C105.791 11.1101 106.729 11.2501 106.729 12.2271C106.729 13.2791 105.516 13.4851 103.421 13.4851C101.483 13.4851 100.259 13.1941 99.786 12.6211C99.6402 12.4384 99.5302 12.2297 99.462 12.0061H95.111ZM120.927 16.5591C115.707 16.5591 112.827 14.4481 112.827 10.6141V2.68611H117.879V10.6141C117.879 11.9291 119.056 12.6831 121.107 12.6831C123.067 12.6831 124.284 11.8961 124.284 10.6311V2.68611H129.284V11.0341C129.289 14.5451 126.24 16.5591 120.924 16.5591H120.927ZM113.327 3.18611V10.6141C113.327 15.3521 118.085 16.0591 120.927 16.0591C123.865 16.0591 128.792 15.4061 128.792 11.0341V3.18611H124.792V10.6311C124.792 12.1811 123.348 13.1831 121.115 13.1831C118.781 13.1831 117.387 12.2231 117.387 10.6141V3.18611H113.327ZM150.472 16.3741H145.704V10.1941L143 16.3741H138.841L136.165 10.2061V16.3741H131.38V2.68611H137.674L140.944 10.2331L144.372 2.68611H150.478L150.472 16.3741ZM146.204 15.8741H149.972V3.18611H144.69L140.928 11.4651L137.342 3.18611H131.876V15.8741H135.661V7.80011L139.161 15.8771H142.661L146.198 7.81211L146.204 15.8741ZM6.054 2.93611H1.5V16.1241H14.084V12.6131H6.054V2.93611ZM23.276 2.63611C17.463 2.63611 14.406 5.39111 14.406 9.43611C14.406 14.0061 17.615 16.3241 23.276 16.3241C29.508 16.3241 32.129 13.6361 32.129 9.43611C32.129 5.17111 29.172 2.63411 23.276 2.63411V2.63611ZM23.259 6.06311C23.6547 6.06125 24.0502 6.08429 24.443 6.13211L19.352 11.2231C19.1111 10.6782 18.9936 10.0867 19.008 9.49111C19.008 7.42211 20.05 6.06111 23.259 6.06111V6.06311ZM23.276 12.9511C22.8947 12.9528 22.5137 12.9314 22.135 12.8871L27.235 7.78711C27.4669 8.32301 27.5779 8.90344 27.56 9.48711C27.56 11.5001 26.6 12.9491 23.276 12.9491V12.9511ZM41.152 11.1511H45.839C45.77 11.4764 45.6262 11.7811 45.419 12.0411C44.4473 12.8327 43.2072 13.2179 41.958 13.1161C41.3292 13.1834 40.6934 13.1147 40.0935 12.9147C39.4936 12.7148 38.9436 12.3882 38.481 11.9571C38.0071 11.262 37.782 10.4272 37.842 9.58811C37.7653 8.70885 38.0101 7.83163 38.531 7.11911C39.186 6.37911 40.295 6.06011 41.925 6.06011C42.9621 5.97424 43.9979 6.24059 44.865 6.81611C45.1383 7.03319 45.3426 7.32502 45.453 7.65611H49.8C49.7684 7.11058 49.6372 6.57544 49.413 6.07711C48.372 3.96011 45.952 2.70011 41.837 2.70011C38.258 2.70011 35.856 3.79211 34.529 5.43911C33.6526 6.62847 33.2027 8.07855 33.252 9.55511C33.1953 11.0651 33.6336 12.5522 34.5 13.7901C35.811 15.4901 38.146 16.3261 40.952 16.3261C42.8175 16.4562 44.6703 15.9337 46.193 14.8481L46.311 16.1241H49.922V8.31211H41.152V11.1511ZM60.171 2.63311C54.359 2.63311 51.301 5.38811 51.301 9.43311C51.301 14.0031 54.509 16.3211 60.171 16.3211C66.404 16.3211 69.025 13.6331 69.025 9.43311C69.025 5.17111 66.068 2.63411 60.171 2.63411V2.63311ZM60.155 6.06011C60.5403 6.05897 60.9253 6.08101 61.308 6.12611L56.237 11.2001C56.0036 10.6612 55.89 10.0782 55.904 9.49111C55.9 7.42211 56.946 6.06111 60.155 6.06111V6.06011ZM60.171 12.9481C59.7796 12.9498 59.3885 12.927 59 12.8801L64.117 7.76211C64.3577 8.30514 64.4729 8.89543 64.454 9.48911C64.456 11.5001 63.5 12.9491 60.171 12.9491V12.9481Z" fill="#B4B7C9"/>
</svg>
