<svg width="119" height="30" viewBox="0 0 119 30" fill="none" xmlns="http://www.w3.org/2000/svg">
<path d="M2.94141 27.8251H28.5914V2.17505H2.94141V27.8251ZM23.6544 12.532H18.2344V7.11205H23.6544V12.532ZM7.87741 7.11205H13.3004V17.468H23.6544V22.8881H7.87741V7.11205ZM45.2944 2.17505C42.7578 2.17505 40.2782 2.92723 38.1692 4.33646C36.0601 5.74569 34.4163 7.74868 33.4456 10.0921C32.4749 12.4356 32.221 15.0142 32.7158 17.502C33.2107 19.9898 34.4321 22.275 36.2257 24.0686C38.0193 25.8623 40.3045 27.0837 42.7923 27.5786C45.2802 28.0735 47.8588 27.8195 50.2023 26.8489C52.5458 25.8782 54.5487 24.2344 55.958 22.1252C57.3672 20.0161 58.1194 17.5365 58.1194 15C58.1154 11.5998 56.7629 8.34009 54.3586 5.9358C51.9543 3.5315 48.6946 2.17902 45.2944 2.17505ZM45.2944 22.8881C43.7343 22.8881 42.2092 22.4254 40.912 21.5586C39.6149 20.6919 38.6038 19.46 38.0068 18.0186C37.4098 16.5773 37.2536 14.9913 37.5579 13.4611C37.8623 11.931 38.6136 10.5255 39.7167 9.42239C40.8199 8.31924 42.2254 7.56798 43.7555 7.26362C45.2856 6.95926 46.8716 7.11547 48.313 7.71249C49.7543 8.30951 50.9863 9.32054 51.853 10.6177C52.7198 11.9148 53.1824 13.4399 53.1824 15C53.1792 17.0911 52.3471 19.0956 50.8685 20.5742C49.3899 22.0528 47.3854 22.8848 45.2944 22.8881ZM104.013 2.17505C101.476 2.17486 98.9971 2.92686 96.8879 4.33597C94.7787 5.74508 93.1348 7.748 92.1639 10.0914C91.1931 12.4348 90.9389 15.0136 91.4337 17.5014C91.9284 19.9893 93.1498 22.2747 94.9434 24.0683C96.7369 25.862 99.0221 27.0837 101.51 27.5786C103.997 28.0735 106.576 27.8195 108.92 26.8489C111.263 25.8783 113.266 24.2344 114.675 22.1253C116.085 20.0162 116.837 17.5366 116.837 15C116.833 11.6 115.481 8.34041 113.077 5.93615C110.673 3.53188 107.413 2.17929 104.013 2.17505ZM104.013 22.8881C102.453 22.8883 100.928 22.4257 99.6308 21.5591C98.3335 20.6925 97.3223 19.4606 96.7251 18.0193C96.1279 16.578 95.9716 14.9919 96.2758 13.4617C96.5801 11.9316 97.3313 10.526 98.4344 9.42275C99.5375 8.31949 100.943 7.56813 102.473 7.26369C104.003 6.95925 105.589 7.1154 107.03 7.7124C108.472 8.30939 109.704 9.32041 110.571 10.6176C111.437 11.9148 111.9 13.4399 111.9 15C111.897 17.0909 111.065 19.0952 109.586 20.5738C108.108 22.0524 106.104 22.8846 104.013 22.8881ZM74.6534 2.17505C72.1168 2.17505 69.6372 2.92723 67.5282 4.33646C65.4191 5.74569 63.7753 7.74868 62.8046 10.0921C61.8339 12.4356 61.58 15.0142 62.0748 17.502C62.5697 19.9898 63.7911 22.275 65.5847 24.0686C67.3783 25.8623 69.6635 27.0837 72.1513 27.5786C74.6391 28.0735 77.2178 27.8195 79.5613 26.8489C81.9048 25.8782 83.9077 24.2344 85.317 22.1252C86.7262 20.0161 87.4784 17.5365 87.4784 15C87.4744 11.5998 86.1219 8.34009 83.7176 5.9358C81.3133 3.5315 78.0536 2.17902 74.6534 2.17505ZM74.6534 22.8881C73.1998 22.8888 71.7744 22.4879 70.5343 21.7295C69.2943 20.9712 68.2878 19.8852 67.6261 18.591C66.9645 17.2968 66.6732 15.8448 66.7846 14.3956C66.896 12.9463 67.4056 11.556 68.2573 10.3781C69.109 9.20031 70.2696 8.28066 71.6109 7.72076C72.9523 7.16085 74.4223 6.98247 75.8586 7.20529C77.295 7.42812 78.6418 8.04348 79.7505 8.98347C80.8592 9.92345 81.6866 11.1515 82.1414 12.532H74.6534V17.468H82.1414C81.6205 19.0433 80.6169 20.4148 79.2728 21.3876C77.9288 22.3605 76.3126 22.8853 74.6534 22.8881Z" fill="#B4B7C9"/>
</svg>
