<svg width="20" height="20" viewBox="0 0 20 20" fill="none" xmlns="http://www.w3.org/2000/svg">
<path d="M17.4559 6.9208C17.4467 6.28996 17.3301 5.66413 17.1067 5.07413C16.7159 4.06663 15.9201 3.26996 14.9126 2.87996C14.3301 2.6608 13.7142 2.5433 13.0909 2.52996C12.2892 2.49413 12.0351 2.48413 10.0001 2.48413C7.96506 2.48413 7.70423 2.48413 6.90839 2.52996C6.28589 2.5433 5.67006 2.6608 5.08756 2.87996C4.08006 3.26996 3.28339 4.06663 2.89339 5.07413C2.67423 5.65663 2.55589 6.27246 2.54423 6.89496C2.50839 7.69746 2.49756 7.95163 2.49756 9.98663C2.49756 12.0216 2.49756 12.2816 2.54423 13.0783C2.55673 13.7016 2.67423 14.3166 2.89339 14.9008C3.28423 15.9075 4.08006 16.7041 5.08839 17.0941C5.66839 17.3208 6.28423 17.4491 6.90923 17.4691C7.71173 17.505 7.96589 17.5158 10.0009 17.5158C12.0359 17.5158 12.2967 17.5158 13.0926 17.4691C13.7151 17.4566 14.3309 17.3391 14.9142 17.12C15.9217 16.7291 16.7176 15.9325 17.1084 14.9258C17.3276 14.3425 17.4451 13.7275 17.4576 13.1033C17.4934 12.3016 17.5042 12.0475 17.5042 10.0116C17.5026 7.97663 17.5026 7.7183 17.4559 6.9208ZM9.99506 13.835C7.86673 13.835 6.14256 12.1108 6.14256 9.98246C6.14256 7.85413 7.86673 6.12996 9.99506 6.12996C12.1217 6.12996 13.8476 7.85413 13.8476 9.98246C13.8476 12.1108 12.1217 13.835 9.99506 13.835ZM14.0009 6.8858C13.5034 6.8858 13.1026 6.48413 13.1026 5.98746C13.1026 5.4908 13.5034 5.08913 14.0009 5.08913C14.4967 5.08913 14.8984 5.4908 14.8984 5.98746C14.8984 6.48413 14.4967 6.8858 14.0009 6.8858Z" fill="#33354D"/>
<path d="M9.99505 12.485C11.3771 12.485 12.4976 11.3646 12.4976 9.98248C12.4976 8.60039 11.3771 7.47998 9.99505 7.47998C8.61296 7.47998 7.49255 8.60039 7.49255 9.98248C7.49255 11.3646 8.61296 12.485 9.99505 12.485Z" fill="#33354D"/>
</svg>
