<svg width="20" height="20" viewBox="0 0 20 20" fill="none" xmlns="http://www.w3.org/2000/svg">
<path d="M16.3608 6.66412C16.3716 6.80995 16.3716 6.95495 16.3716 7.09995C16.3716 11.5375 12.9941 16.6508 6.82163 16.6508C4.91996 16.6508 3.15329 16.1 1.66663 15.1433C1.93663 15.1741 2.19663 15.185 2.47746 15.185C4.04663 15.185 5.49079 14.655 6.64496 13.7508C5.16913 13.72 3.93246 12.7533 3.50579 11.4233C3.71329 11.4541 3.92163 11.475 4.13996 11.475C4.44079 11.475 4.74329 11.4333 5.02413 11.3608C3.48496 11.0491 2.33246 9.69829 2.33246 8.06662V8.02495C2.77996 8.27412 3.29913 8.42995 3.84913 8.45079C2.94496 7.84912 2.35246 6.81995 2.35246 5.65579C2.35246 5.03245 2.51829 4.46079 2.80913 3.96245C4.46163 5.99829 6.94579 7.32912 9.73079 7.47495C9.67913 7.22495 9.64746 6.96579 9.64746 6.70579C9.64746 4.85579 11.1441 3.34912 13.0041 3.34912C13.9708 3.34912 14.8433 3.75412 15.4566 4.40912C16.215 4.26329 16.9416 3.98245 17.5866 3.59829C17.3375 4.37745 16.8066 5.03245 16.1108 5.44829C16.7866 5.37495 17.4416 5.18829 18.0433 4.92829C17.5866 5.59329 17.0158 6.18579 16.3608 6.66412Z" fill="#33354D"/>
</svg>
