<svg width="20" height="20" viewBox="0 0 20 20" fill="none" xmlns="http://www.w3.org/2000/svg">
<path d="M17.9942 6.00259C17.8025 5.28759 17.24 4.72342 16.5259 4.53092C15.2209 4.17259 10 4.16675 10 4.16675C10 4.16675 4.78003 4.16092 3.4742 4.50342C2.7742 4.69425 2.19586 5.27092 2.00253 5.98509C1.65836 7.29009 1.65503 9.99675 1.65503 9.99675C1.65503 9.99675 1.6517 12.7168 1.99336 14.0084C2.18503 14.7226 2.74753 15.2868 3.46253 15.4793C4.78086 15.8376 9.98753 15.8434 9.98753 15.8434C9.98753 15.8434 15.2084 15.8493 16.5134 15.5076C17.2267 15.3159 17.7917 14.7526 17.9859 14.0384C18.3309 12.7343 18.3334 10.0284 18.3334 10.0284C18.3334 10.0284 18.35 7.30759 17.9942 6.00259ZM8.33003 12.5043L8.3342 7.50425L12.6734 10.0084L8.33003 12.5043Z" fill="#33354D"/>
</svg>
