<svg width="78" height="78" viewBox="0 0 78 78" fill="none" xmlns="http://www.w3.org/2000/svg">
<g clip-path="url(#clip0_20005128_10795)">
<path d="M47.176 65.0002C47.176 72.18 41.3554 78 34.1756 78C26.9958 78 21.1758 72.18 21.1758 65.0002C21.1758 57.8204 26.9958 51.9998 34.1756 51.9998C41.3554 51.9998 47.176 57.8204 47.176 65.0002Z" fill="#FFBA08"/>
<path opacity="0.3" d="M47.176 65.0004C47.176 72.1802 41.3554 78.0002 34.1756 78.0002C26.9958 78.0002 21.1758 72.1802 21.1758 65.0004C21.1758 57.8206 26.9958 52 34.1756 52C41.3554 52 47.176 57.8206 47.176 65.0004Z" fill="#EF4444"/>
<path d="M56.9516 38.7436C45.934 37.1701 37.426 27.6963 37.426 16.2502C37.426 12.9998 38.121 9.91608 39.3529 7.11736C37.689 6.72757 35.9603 6.50024 34.1756 6.50024C21.631 6.50024 11.4258 16.7049 11.4258 29.25V38.3109C11.4258 44.7427 8.60802 50.8138 3.66458 54.9932C2.4006 56.0721 1.67578 57.6485 1.67578 59.3123C1.67578 62.4491 4.22694 65.0002 7.36308 65.0002H60.9881C64.1248 65.0002 66.676 62.4491 66.676 59.3123C66.676 57.6485 65.9512 56.0721 64.6544 54.964C59.8574 50.9049 57.0753 45.0123 56.9516 38.7436Z" fill="url(#paint0_linear_20005128_10795)"/>
<path d="M76.4262 16.2502C76.4262 25.2248 69.1506 32.4998 60.176 32.4998C51.2014 32.4998 43.9258 25.2248 43.9258 16.2502C43.9258 7.2756 51.2014 0 60.176 0C69.1506 0 76.4262 7.2756 76.4262 16.2502Z" fill="url(#paint1_linear_20005128_10795)"/>
</g>
<defs>
<linearGradient id="paint0_linear_20005128_10795" x1="-2.5" y1="54.0002" x2="59.5" y2="19.0002" gradientUnits="userSpaceOnUse">
<stop stop-color="#FFBA08"/>
<stop offset="1" stop-color="#FFDB7E"/>
</linearGradient>
<linearGradient id="paint1_linear_20005128_10795" x1="42.5" y1="37.5" x2="60" y2="-1.5" gradientUnits="userSpaceOnUse">
<stop stop-color="#7A1CD0"/>
<stop offset="1" stop-color="#6366F1"/>
</linearGradient>
<clipPath id="clip0_20005128_10795">
<rect width="78" height="78" fill="white"/>
</clipPath>
</defs>
</svg>
