<svg width="20" height="20" viewBox="0 0 20 20" fill="none" xmlns="http://www.w3.org/2000/svg">
<path d="M9.99996 1.66666C5.40496 1.66666 1.66663 5.40499 1.66663 9.99999C1.66663 14.595 5.40496 18.3333 9.99996 18.3333C14.595 18.3333 18.3333 14.595 18.3333 9.99999C18.3333 5.40499 14.595 1.66666 9.99996 1.66666ZM9.99996 16.6667C6.32413 16.6667 3.33329 13.6758 3.33329 9.99999C3.33329 6.32416 6.32413 3.33332 9.99996 3.33332C13.6758 3.33332 16.6666 6.32416 16.6666 9.99999C16.6666 13.6758 13.6758 16.6667 9.99996 16.6667Z" fill="#6366F1"/>
<path d="M8.33249 11.3225L6.41666 9.40999L5.23999 10.59L8.33416 13.6775L13.9225 8.08916L12.7442 6.91083L8.33249 11.3225Z" fill="#6366F1"/>
</svg>
