<svg width="28" height="28" viewBox="0 0 28 28" fill="none" xmlns="http://www.w3.org/2000/svg">
<path d="M14.0547 1C21.7443 1 28 6.5195 28 13.3047C28 16.171 26.8657 18.9483 24.8013 21.1497C24.3927 22.8344 24.8886 24.6192 26.1191 25.8497C26.6336 26.3642 26.2697 27.25 25.5391 27.25C23.2015 27.25 20.948 26.3344 19.2738 24.7194C17.6171 25.3106 15.8644 25.6094 14.0547 25.6094C6.36508 25.6094 0 20.0899 0 13.3047C0 6.5195 6.36508 1 14.0547 1ZM20.5078 15.7656C21.8648 15.7656 22.9688 14.6617 22.9688 13.3047C22.9688 11.9477 21.8648 10.8438 20.5078 10.8438C19.1508 10.8438 18.0469 11.9477 18.0469 13.3047C18.0469 14.6617 19.1508 15.7656 20.5078 15.7656ZM13.9453 15.7656C15.3023 15.7656 16.4062 14.6617 16.4062 13.3047C16.4062 11.9477 15.3023 10.8438 13.9453 10.8438C12.5883 10.8438 11.4844 11.9477 11.4844 13.3047C11.4844 14.6617 12.5883 15.7656 13.9453 15.7656ZM7.38281 15.7656C8.73983 15.7656 9.84375 14.6617 9.84375 13.3047C9.84375 11.9477 8.73983 10.8438 7.38281 10.8438C6.0258 10.8438 4.92188 11.9477 4.92188 13.3047C4.92188 14.6617 6.0258 15.7656 7.38281 15.7656Z" fill="#22C55E"/>
</svg>
