<svg width="20" height="20" viewBox="0 0 20 20" fill="none" xmlns="http://www.w3.org/2000/svg">
<path d="M9.85792 1.66663C5.32825 1.66663 1.64307 5.40496 1.64307 9.99996C1.64307 14.595 5.32825 18.3333 9.85792 18.3333C14.3876 18.3333 18.0728 14.595 18.0728 9.99996C18.0728 5.40496 14.3876 1.66663 9.85792 1.66663ZM9.85792 16.6666C6.23435 16.6666 3.28604 13.6758 3.28604 9.99996C3.28604 6.32413 6.23435 3.33329 9.85792 3.33329C13.4815 3.33329 16.4298 6.32413 16.4298 9.99996C16.4298 13.6758 13.4815 16.6666 9.85792 16.6666Z" fill="#6366F1"/>
<path d="M10.6791 5.83337H9.03613V10.345L11.7413 13.0892L12.9029 11.9109L10.6791 9.65504V5.83337Z" fill="#6366F1"/>
</svg>
