<svg width="28" height="22" viewBox="0 0 28 22" fill="none" xmlns="http://www.w3.org/2000/svg">
<path d="M22.5312 13.4129C23.1354 13.4129 23.625 13.9025 23.625 14.5066V15.8191C23.625 16.4232 23.1354 16.9129 22.5312 16.9129H20.0156C19.4115 16.9129 18.9219 16.4232 18.9219 15.8191V14.5066C18.9219 13.9025 19.4115 13.4129 20.0156 13.4129H22.5312ZM25.8125 11.4441V8.16287H2.1875V16.9062C2.1875 18.1124 3.16888 19.0938 4.375 19.0938H23.625C24.8311 19.0938 25.8125 18.1124 25.8125 16.9062C25.8125 16.3021 26.3021 15.8125 26.9062 15.8125C27.5104 15.8125 28 16.3021 28 16.9062C28 19.3187 26.0374 21.2812 23.625 21.2812H4.375C1.96255 21.2812 0 19.3187 0 16.9062V5.09375C0 2.6813 1.96255 0.71875 4.375 0.71875H23.625C26.0374 0.71875 28 2.6813 28 5.09375V11.4441C28 12.0482 27.5104 12.5379 26.9062 12.5379C26.3021 12.5379 25.8125 12.0482 25.8125 11.4441ZM25.8125 5.97537V5.09375C25.8125 3.88763 24.8311 2.90625 23.625 2.90625H4.375C3.16888 2.90625 2.1875 3.88763 2.1875 5.09375V5.97537H25.8125ZM5.46875 10.3504C4.86462 10.3504 4.375 10.84 4.375 11.4441C4.375 12.0482 4.86462 12.5379 5.46875 12.5379H14.4922C15.0963 12.5379 15.5859 12.0482 15.5859 11.4441C15.5859 10.84 15.0963 10.3504 14.4922 10.3504H5.46875Z" fill="url(#paint0_linear_20005128_11017)"/>
<defs>
<linearGradient id="paint0_linear_20005128_11017" x1="0" y1="11.0492" x2="28" y2="11.0492" gradientUnits="userSpaceOnUse">
<stop stop-color="#6366F1"/>
<stop offset="0.5" stop-color="#8B5CF6"/>
<stop offset="1" stop-color="#D946EF"/>
</linearGradient>
</defs>
</svg>
