<svg width="28" height="28" viewBox="0 0 28 28" fill="none" xmlns="http://www.w3.org/2000/svg">
<g clip-path="url(#clip0_20005128_11002)">
<path d="M25.8127 21.9827V2.73416C25.8127 2.43274 25.5673 2.18729 25.2658 2.18729H22.8598C22.5582 2.18729 22.3129 2.43274 22.3129 2.73416V25.8106H26.9062C27.5104 25.8106 28 26.3002 28 26.9041C28 27.5082 27.5104 27.9979 26.9062 27.9979H1.09589C0.49176 27.9979 0.00213623 27.5082 0.00213623 26.9041V19.0844C0.00213623 17.5769 1.22876 16.3503 2.7363 16.3503H5.14233C6.65009 16.3503 7.8765 17.5769 7.8765 19.0844V21.9827C7.8765 22.5868 7.38687 23.0764 6.78296 23.0764C6.17883 23.0764 5.68921 22.5868 5.68921 21.9827V19.0844C5.68921 18.783 5.44397 18.5376 5.14233 18.5376H2.7363C2.43488 18.5376 2.18942 18.783 2.18942 19.0844V25.8106H10.064V11.4835C10.064 9.97577 11.2904 8.74936 12.7982 8.74936H15.2042C16.7117 8.74936 17.9384 9.97577 17.9384 11.4835V21.9827C17.9384 22.5868 17.4487 23.0764 16.8446 23.0764C16.2407 23.0764 15.7509 22.5868 15.7509 21.9827V11.4835C15.7509 11.1819 15.5056 10.9366 15.2042 10.9366H12.7982C12.4965 10.9366 12.2513 11.1819 12.2513 11.4835V25.8106H20.1256V2.73416C20.1256 1.22662 21.3523 0 22.8598 0H25.2658C26.7734 0 28 1.22662 28 2.73416V21.9827C28 22.5868 27.5104 23.0764 26.9062 23.0764C26.3023 23.0764 25.8127 22.5868 25.8127 21.9827ZM4.35684 9.78821H2.72818C2.45944 9.78821 2.18729 9.61923 2.18729 9.29623C2.18729 8.69211 1.69766 8.20248 1.09375 8.20248C0.489624 8.20248 0 8.69211 0 9.29623C0 10.7649 1.14545 11.9221 2.62585 11.9731V12.5771C2.62585 13.1812 3.11548 13.6708 3.7196 13.6708C4.32352 13.6708 4.81314 13.1812 4.81314 12.5771V11.9437C6.31769 11.7335 7.43921 10.4962 7.43921 8.95422V8.85852C7.43921 7.13992 6.05643 5.74176 4.35684 5.74176H3.35474C2.85635 5.74176 2.46585 5.3613 2.46585 4.87531V4.79605C2.46585 4.30643 2.84802 3.93729 3.35474 3.93729H4.30237C4.58093 3.93729 4.8689 4.12357 4.8689 4.43567C4.8689 5.03979 5.35873 5.52942 5.96265 5.52942C6.56677 5.52942 7.0564 5.03979 7.0564 4.43567C7.0564 3.12488 6.08847 2.03134 4.81314 1.797V1.09375C4.81314 0.489624 4.32352 0 3.7196 0C3.11548 0 2.62585 0.489624 2.62585 1.09375V1.83459C2.08453 1.96234 1.58871 2.23215 1.18668 2.62564C0.600922 3.19879 0.278564 3.96954 0.278564 4.79605V4.87531C0.278564 5.70139 0.600281 6.47278 1.18454 7.04764C1.76239 7.61609 2.53314 7.92905 3.35474 7.92905H4.35684C4.84198 7.92905 5.25171 8.3548 5.25171 8.85852V8.95422C5.25171 9.42975 4.86697 9.78821 4.35684 9.78821Z" fill="url(#paint0_linear_20005128_11002)"/>
</g>
<defs>
<linearGradient id="paint0_linear_20005128_11002" x1="0" y1="14.0659" x2="28" y2="14.0659" gradientUnits="userSpaceOnUse">
<stop stop-color="#6366F1"/>
<stop offset="0.5" stop-color="#8B5CF6"/>
<stop offset="1" stop-color="#D946EF"/>
</linearGradient>
<clipPath id="clip0_20005128_11002">
<rect width="28" height="28" fill="white"/>
</clipPath>
</defs>
</svg>
