<svg width="28" height="28" viewBox="0 0 28 28" fill="none" xmlns="http://www.w3.org/2000/svg">
<path d="M13.9453 21.6562C8.91406 21.6562 6.57275 17.4344 6.47534 17.2548C6.18802 16.7235 6.38583 16.0598 6.91711 15.7722C7.44861 15.4849 8.11212 15.6827 8.39944 16.214C8.40179 16.2183 8.87326 17.0614 9.81107 17.8813C11.0159 18.9347 12.4068 19.4688 13.9453 19.4688C17.6873 19.4688 19.4734 16.2465 19.491 16.214C19.7785 15.6827 20.4422 15.4849 20.9735 15.7724C21.5048 16.0598 21.7026 16.7235 21.4151 17.2548C21.3179 17.4344 18.9766 21.6562 13.9453 21.6562ZM21.244 25.9823C21.7607 25.6694 21.9258 24.9969 21.6129 24.4801C21.2999 23.9636 20.6272 23.7985 20.1107 24.1114C18.2735 25.2242 16.1604 25.8125 14 25.8125C7.48663 25.8125 2.1875 20.5134 2.1875 14C2.1875 7.48663 7.48663 2.1875 14 2.1875C20.5134 2.1875 25.8125 7.48663 25.8125 14C25.8125 16.3291 25.1199 18.5961 23.8096 20.5561C23.4738 21.0583 23.6088 21.7376 24.1108 22.0732C24.6132 22.4091 25.2923 22.274 25.6279 21.7718C27.1799 19.451 28 16.7634 28 14C28 10.2605 26.5437 6.74472 23.8995 4.10049C21.2553 1.45627 17.7395 0 14 0C10.2605 0 6.74472 1.45627 4.10049 4.10049C1.45627 6.74472 0 10.2605 0 14C0 17.7395 1.45627 21.2553 4.10049 23.8995C6.74472 26.5437 10.2605 28 14 28C16.5601 28 19.065 27.3023 21.244 25.9823ZM21.6016 11.375C21.6016 9.86725 20.3749 8.64062 18.8672 8.64062C17.3594 8.64062 16.1328 9.86725 16.1328 11.375C16.1328 11.9791 16.6224 12.4688 17.2266 12.4688C17.8307 12.4688 18.3203 11.9791 18.3203 11.375C18.3203 11.0734 18.5656 10.8281 18.8672 10.8281C19.1688 10.8281 19.4141 11.0734 19.4141 11.375C19.4141 11.9791 19.9037 12.4688 20.5078 12.4688C21.1119 12.4688 21.6016 11.9791 21.6016 11.375ZM11.9219 11.375C11.9219 9.86725 10.6953 8.64062 9.1875 8.64062C7.67975 8.64062 6.45312 9.86725 6.45312 11.375C6.45312 11.9791 6.94275 12.4688 7.54688 12.4688C8.151 12.4688 8.64062 11.9791 8.64062 11.375C8.64062 11.0734 8.88586 10.8281 9.1875 10.8281C9.48914 10.8281 9.73438 11.0734 9.73438 11.375C9.73438 11.9791 10.224 12.4688 10.8281 12.4688C11.4323 12.4688 11.9219 11.9791 11.9219 11.375Z" fill="url(#paint0_linear_20005128_10980)"/>
<defs>
<linearGradient id="paint0_linear_20005128_10980" x1="0" y1="14.067" x2="28" y2="14.067" gradientUnits="userSpaceOnUse">
<stop stop-color="#6366F1"/>
<stop offset="0.5" stop-color="#8B5CF6"/>
<stop offset="1" stop-color="#D946EF"/>
</linearGradient>
</defs>
</svg>
