<svg width="28" height="28" viewBox="0 0 28 28" fill="none" xmlns="http://www.w3.org/2000/svg">
<g clip-path="url(#clip0_20005128_10986)">
<path d="M22.1484 14.055C20.3391 14.055 18.8672 15.527 18.8672 17.3362C18.8672 19.1455 20.3391 20.6175 22.1484 20.6175H26.7968C26.8154 20.6175 26.8335 20.6156 26.8518 20.6147C26.8699 20.6156 26.8878 20.6174 26.9062 20.6174C27.5103 20.6174 27.9999 20.1278 27.9999 19.5237V10.9378C27.9999 9.48166 27.2843 8.19021 26.1868 7.39457L22.4659 1.29036C22.3142 1.04142 22.0693 0.86336 21.7857 0.795767C21.5021 0.728064 21.2033 0.776462 20.9555 0.930134L18.2115 2.63179L16.974 0.537587C16.8252 0.285807 16.5818 0.104135 16.2982 0.0330414C16.0145 -0.0380522 15.7141 0.0075024 15.4643 0.159315L4.92783 6.56277H3.28124C2.68728 6.56277 2.20237 6.08688 2.18782 5.49637C2.20237 4.90585 2.68728 4.42996 3.28124 4.42996H5.30468C5.90875 4.42996 6.39843 3.94029 6.39843 3.33622C6.39843 2.73214 5.90875 2.24247 5.30468 2.24247H3.28124C1.7337 2.24247 0.433069 3.31948 0.0891405 4.76328C0.0319374 4.89595 0 5.04197 0 5.19559V5.46902V5.52371V23.6252C0 26.0376 1.96262 28.0002 4.37499 28.0002H23.625C25.5111 28.0002 27.1793 26.7987 27.7758 25.0104C27.967 24.4374 27.6574 23.8179 27.0844 23.6268C26.5114 23.4356 25.8919 23.7452 25.7007 24.3182C25.4025 25.2121 24.5684 25.8127 23.625 25.8127H4.37499C3.16881 25.8127 2.1875 24.8314 2.1875 23.6252V8.56264C2.52978 8.68404 2.89789 8.75027 3.28124 8.75027H23.625C24.8311 8.75027 25.8125 9.73158 25.8125 10.9378V14.055H22.1484ZM25.8125 18.4299H22.1484C21.5453 18.43 21.0546 17.9393 21.0546 17.3362C21.0546 16.7331 21.5453 16.2424 22.1484 16.2424H25.8125V18.4299ZM9.1398 6.56283L15.6541 2.60384L16.8188 4.57483C16.8411 4.6287 16.8668 4.6818 16.8986 4.73299C16.9224 4.77132 16.9487 4.80703 16.9762 4.84138L17.9934 6.56283H9.1398ZM20.5343 6.56277L19.3246 4.51549L21.1717 3.37007L23.1179 6.56277H20.5343Z" fill="url(#paint0_linear_20005128_10986)"/>
</g>
<defs>
<linearGradient id="paint0_linear_20005128_10986" x1="0" y1="14.0672" x2="27.9999" y2="14.0672" gradientUnits="userSpaceOnUse">
<stop stop-color="#6366F1"/>
<stop offset="0.5" stop-color="#8B5CF6"/>
<stop offset="1" stop-color="#D946EF"/>
</linearGradient>
<clipPath id="clip0_20005128_10986">
<rect width="28" height="28" fill="white"/>
</clipPath>
</defs>
</svg>
