<svg width="28" height="28" viewBox="0 0 28 28" fill="none" xmlns="http://www.w3.org/2000/svg">
<g clip-path="url(#clip0_20005128_10995)">
<path d="M26.3217 22.5444C27.4213 21.0473 27.999 19.3076 27.999 17.474C27.999 14.5388 26.4768 11.8137 23.9088 10.1132C23.672 7.49808 22.4509 5.07286 20.4093 3.20424C18.1518 1.13799 15.1566 0 11.9756 0C8.7946 0 5.79948 1.13799 3.54187 3.2043C1.25725 5.29527 -0.000940095 8.08312 -0.000940095 11.0543C-0.000940095 13.3396 0.735754 15.5062 2.13619 17.36L0.0787941 22.4494C-0.0880571 22.8621 0.0118568 23.3348 0.331504 23.6446C0.539863 23.8465 0.814285 23.9531 1.09308 23.9531C1.24199 23.9531 1.39217 23.9227 1.53403 23.8602L7.40204 21.2734C8.13873 21.555 8.89768 21.7657 9.67413 21.9051C10.4695 23.2132 11.6039 24.3208 12.983 25.1272C14.5227 26.0273 16.3004 26.5082 18.129 26.5221C18.1558 26.524 18.1826 26.5262 18.21 26.5262C19.4742 26.5262 20.6991 26.3078 21.8578 25.8765L26.4641 27.907C26.6059 27.9696 26.7561 28 26.905 28C27.1838 28 27.4583 27.8935 27.6666 27.6915C27.9863 27.3816 28.0862 26.9089 27.9193 26.4963L26.3217 22.5444ZM24.0554 22.7749L24.8817 24.8189L22.3203 23.6898C22.0434 23.5677 21.7283 23.5658 21.4499 23.6846C20.446 24.1129 19.371 24.3324 18.2543 24.3381C18.2395 24.3375 18.2249 24.3359 18.21 24.3359C16.0545 24.3359 14.0182 23.4936 12.5955 22.0924C14.3993 22.006 16.1673 21.5454 17.7436 20.7449C18.2823 20.4713 18.4971 19.813 18.2235 19.2744C17.95 18.7358 17.2916 18.5211 16.753 18.7945C15.302 19.5315 13.6499 19.9211 11.9756 19.9211C10.5207 19.9211 9.11999 19.6382 7.81258 19.0804C7.53427 18.9616 7.21905 18.9634 6.94217 19.0856L3.11635 20.7721L4.40446 17.5857C4.5572 17.2078 4.48725 16.7763 4.22284 16.4662C2.89071 14.9034 2.18656 13.0319 2.18656 11.0543C2.18656 6.16507 6.5779 2.1875 11.9756 2.1875C17.3733 2.1875 21.7646 6.16507 21.7646 11.0543C21.7646 12.6334 21.3004 14.1837 20.422 15.5375C20.0932 16.0442 20.2374 16.7215 20.7442 17.0503C21.2509 17.3792 21.9282 17.2348 22.2571 16.7281C23.0366 15.5267 23.5574 14.2002 23.7982 12.8225C25.0795 14.0772 25.8115 15.73 25.8115 17.474C25.8115 19.0012 25.2671 20.4471 24.2371 21.6554C23.9726 21.9656 23.9027 22.3971 24.0554 22.7749ZM13.0147 16.6797C13.0147 17.2837 12.525 17.7734 11.9209 17.7734C11.3168 17.7734 10.8272 17.2837 10.8272 16.6797C10.8272 16.0756 11.3168 15.5859 11.9209 15.5859C12.525 15.5859 13.0147 16.0756 13.0147 16.6797ZM16.0762 8.48486C16.0769 8.50006 16.0772 8.51526 16.0772 8.53063C16.0776 10.1771 15.0993 11.6588 13.5849 12.3053C13.2716 12.4391 13.069 12.7547 13.069 13.1092V13.1797C13.069 13.7837 12.5793 14.2734 11.9753 14.2734C11.3712 14.2734 10.8815 13.7837 10.8815 13.1797V13.1093C10.8815 11.8771 11.6055 10.7719 12.7261 10.2935C13.4235 9.99576 13.8774 9.31868 13.8894 8.56251C13.8892 8.55201 13.889 8.54146 13.889 8.5309C13.889 7.47571 13.0305 6.61723 11.9753 6.61723C10.9201 6.61717 10.0615 7.47566 10.0615 8.53085C10.0615 9.13493 9.57187 9.6246 8.96779 9.6246C8.36371 9.6246 7.87404 9.13493 7.87404 8.53085C7.87404 6.26947 9.71384 4.42968 11.9753 4.42968C14.2213 4.42968 16.0516 6.24459 16.0762 8.48486Z" fill="url(#paint0_linear_20005128_10995)"/>
</g>
<defs>
<linearGradient id="paint0_linear_20005128_10995" x1="-0.000976563" y1="14.067" x2="27.9991" y2="14.067" gradientUnits="userSpaceOnUse">
<stop stop-color="#6366F1"/>
<stop offset="0.5" stop-color="#8B5CF6"/>
<stop offset="1" stop-color="#D946EF"/>
</linearGradient>
<clipPath id="clip0_20005128_10995">
<rect width="28" height="28" fill="white"/>
</clipPath>
</defs>
</svg>
