<svg width="28" height="28" viewBox="0 0 28 28" fill="none" xmlns="http://www.w3.org/2000/svg">
<g clip-path="url(#clip0_20005128_11009)">
<path d="M13.9454 28C13.7777 28 13.6102 27.9615 13.4562 27.8846C13.3282 27.8206 10.2866 26.2784 7.1043 22.8192C5.23894 20.7919 3.70684 18.5186 2.55028 16.0625C1.10576 12.9949 0.248492 9.63632 0.00175709 6.08014C-0.0183235 5.79004 0.0780205 5.504 0.269213 5.28503C0.460619 5.06607 0.731066 4.93213 1.02138 4.91312C3.02452 4.78152 4.5938 3.10394 4.5938 1.09375C4.5938 0.489624 5.08342 0 5.68755 0H22.3125C22.9165 0 23.4063 0.489624 23.4063 1.09375C23.4063 3.10266 24.9745 4.78024 26.9766 4.91312C27.2714 4.93256 27.5457 5.07056 27.7371 5.2955C27.9287 5.52045 28.021 5.81332 27.9932 6.10748C27.6192 10.0561 26.5288 13.7492 24.7523 17.0845C24.4682 17.6177 23.8058 17.8196 23.2728 17.5357C22.7396 17.2518 22.5377 16.5893 22.8216 16.0561C24.3097 13.2624 25.2768 10.1905 25.7021 6.91156C23.4625 6.32111 21.742 4.46899 21.319 2.1875H6.68111C6.25643 4.47882 4.5233 6.3367 2.26979 6.91882C2.84465 12.4367 4.98943 17.2612 8.65306 21.2717C10.8461 23.6722 12.9962 25.0885 13.9392 25.6491C14.971 25.0215 17.4663 23.3349 19.8956 20.4106C20.2816 19.9458 20.971 19.8821 21.4358 20.2681C21.9005 20.6541 21.9643 21.3437 21.5783 21.8083C18.121 25.9702 14.5922 27.8039 14.4435 27.8799C14.2872 27.9601 14.1163 28 13.9454 28ZM14.7913 22.0809C15.1555 21.5988 15.06 20.9131 14.5783 20.5488C13.6326 19.8343 12.7378 19.024 11.9183 18.1409C9.53575 15.5723 7.91927 12.5544 7.10729 9.16165C7.54479 8.8237 7.95644 8.45029 8.33647 8.04611C8.96666 7.37555 9.50478 6.6268 9.93587 5.82016C10.2204 5.28738 10.0192 4.62473 9.48641 4.33997C8.95363 4.05542 8.29097 4.25665 8.00643 4.78943C7.66612 5.42603 7.24101 6.01755 6.74285 6.54776C6.30364 7.01495 5.81145 7.4296 5.28038 7.78058C4.90782 8.02667 4.72219 8.47464 4.81169 8.91235C5.6444 12.9842 7.49565 16.5898 10.3146 19.6285C11.2208 20.6054 12.2116 21.5024 13.2594 22.2941C13.4568 22.4432 13.6884 22.5152 13.918 22.5152C14.2491 22.5152 14.5764 22.3655 14.7913 22.0809Z" fill="url(#paint0_linear_20005128_11009)"/>
</g>
<defs>
<linearGradient id="paint0_linear_20005128_11009" x1="-0.000854492" y1="14.067" x2="27.9981" y2="14.067" gradientUnits="userSpaceOnUse">
<stop stop-color="#6366F1"/>
<stop offset="0.5" stop-color="#8B5CF6"/>
<stop offset="1" stop-color="#D946EF"/>
</linearGradient>
<clipPath id="clip0_20005128_11009">
<rect width="28" height="28" fill="white"/>
</clipPath>
</defs>
</svg>
