<svg width="14" height="16" viewBox="0 0 14 16" fill="none" xmlns="http://www.w3.org/2000/svg">
<path d="M1.75244 15.4999H4.75244H9.25244H12.2524C13.0797 15.4999 13.7524 14.8272 13.7524 13.9999V7.24994C13.7524 7.05119 13.6737 6.85994 13.5327 6.71969L7.53269 0.719693C7.23944 0.426443 6.76544 0.426443 6.47219 0.719693L0.472191 6.71969C0.331191 6.85994 0.252441 7.05119 0.252441 7.24994V13.9999C0.252441 14.8272 0.925191 15.4999 1.75244 15.4999ZM5.50244 13.9999V10.2499H8.50244V13.9999H5.50244ZM1.75244 7.56044L7.00244 2.31044L12.2524 7.56044L12.2532 13.9999H10.0024V10.2499C10.0024 9.42269 9.32969 8.74994 8.50244 8.74994H5.50244C4.67519 8.74994 4.00244 9.42269 4.00244 10.2499V13.9999H1.75244V7.56044Z" fill="#9397AD"/>
</svg>
