<svg width="28" height="28" viewBox="0 0 28 28" fill="none" xmlns="http://www.w3.org/2000/svg">
<path d="M16.2129 18.4077C15.5282 17.93 14.7965 17.5408 14.0313 17.2434C15.0492 16.3182 15.7245 15.0222 15.842 13.5713C17.3856 12.0671 19.4091 11.2426 21.5782 11.2426C23.2716 11.2426 24.8975 11.7525 26.2805 12.717C26.7761 13.0626 27.4575 12.9413 27.8032 12.4457C28.1486 11.9503 28.0273 11.2686 27.5319 10.9232C26.8472 10.4455 26.1154 10.0565 25.3502 9.75894C26.4734 8.73804 27.1796 7.26596 27.1796 5.63217C27.1796 2.55664 24.6777 0.0546875 21.6021 0.0546875C18.5268 0.0546875 16.0249 2.55664 16.0249 5.63217C16.0249 7.25934 16.7253 8.72608 17.8409 9.74655C17.6881 9.8053 17.5362 9.86747 17.3859 9.93369C16.7014 10.2349 16.058 10.6053 15.4596 11.0403C14.6344 8.99012 12.6253 7.53919 10.2833 7.53919C7.208 7.53919 4.70583 10.0411 4.70583 13.1165C4.70583 14.7391 5.40245 16.2018 6.51201 17.2219C3.54543 18.3333 1.14003 20.7206 0.160783 23.7651C-0.163924 24.7747 0.00804216 25.8454 0.632676 26.7027C1.25731 27.5597 2.22374 28.0513 3.28417 28.0513H12.7987C13.4026 28.0513 13.8923 27.5617 13.8923 26.9575C13.8923 26.3536 13.4026 25.864 12.7987 25.864H3.28417C2.93062 25.864 2.60848 25.7001 2.40019 25.4143C2.19191 25.1285 2.13466 24.7715 2.24275 24.4349C3.32369 21.0741 6.62032 18.7271 10.2594 18.7271C11.9526 18.7271 13.5787 19.237 14.9617 20.2015C15.4571 20.5471 16.1387 20.4256 16.4844 19.9302C16.8298 19.4348 16.7085 18.7531 16.2129 18.4077ZM21.6021 2.24197C23.4716 2.24197 24.9923 3.76276 24.9923 5.63217C24.9923 7.50138 23.4716 9.02237 21.6021 9.02237C19.7329 9.02237 18.2119 7.50138 18.2119 5.63217C18.2119 3.76276 19.7329 2.24197 21.6021 2.24197ZM10.2833 9.72626C12.1527 9.72626 13.6735 11.2473 13.6735 13.1165C13.6735 14.9859 12.1527 16.5067 10.2833 16.5067C8.4139 16.5067 6.89312 14.9859 6.89312 13.1165C6.89312 11.2473 8.4139 9.72626 10.2833 9.72626ZM27.9999 22.8566C27.9999 23.4605 27.5103 23.9501 26.9062 23.9501H23.8988V26.9575C23.8988 27.5617 23.4092 28.0513 22.8053 28.0513C22.2011 28.0513 21.7115 27.5617 21.7115 26.9575V23.9501H18.7041C18.1002 23.9501 17.6106 23.4605 17.6106 22.8566C17.6106 22.2525 18.1002 21.7629 18.7041 21.7629H21.7115V18.7555C21.7115 18.1516 22.2011 17.6619 22.8053 17.6619C23.4092 17.6619 23.8988 18.1516 23.8988 18.7555V21.7629H26.9062C27.5103 21.7629 27.9999 22.2525 27.9999 22.8566Z" fill="#6366F1"/>
</svg>
