<svg width="20" height="20" viewBox="0 0 20 20" fill="none" xmlns="http://www.w3.org/2000/svg">
<path d="M16.6665 3.33337H3.33317C2.414 3.33337 1.6665 4.08087 1.6665 5.00004V15C1.6665 15.9192 2.414 16.6667 3.33317 16.6667H16.6665C17.5857 16.6667 18.3332 15.9192 18.3332 15V5.00004C18.3332 4.08087 17.5857 3.33337 16.6665 3.33337ZM16.6665 5.00004V5.42587L9.99984 10.6117L3.33317 5.42671V5.00004H16.6665ZM3.33317 15V7.53671L9.48817 12.3242C9.63817 12.4417 9.819 12.5 9.99984 12.5C10.1807 12.5 10.3615 12.4417 10.5115 12.3242L16.6665 7.53671L16.6682 15H3.33317Z" fill="white" fill-opacity="0.4"/>
</svg>
