<svg width="28" height="28" viewBox="0 0 28 28" fill="none" xmlns="http://www.w3.org/2000/svg">
<path d="M23.3335 4.66675H4.66683C3.38 4.66675 2.3335 5.71325 2.3335 7.00008V21.0001C2.3335 22.2869 3.38 23.3334 4.66683 23.3334H23.3335C24.6203 23.3334 25.6668 22.2869 25.6668 21.0001V7.00008C25.6668 5.71325 24.6203 4.66675 23.3335 4.66675ZM23.3335 7.00008V7.59625L14.0002 14.8564L4.66683 7.59741V7.00008H23.3335ZM4.66683 21.0001V10.5514L13.2838 17.2539C13.4938 17.4184 13.747 17.5001 14.0002 17.5001C14.2533 17.5001 14.5065 17.4184 14.7165 17.2539L23.3335 10.5514L23.3358 21.0001H4.66683Z" fill="#6366F1"/>
</svg>
