<svg width="20" height="20" viewBox="0 0 20 20" fill="none" xmlns="http://www.w3.org/2000/svg">
<path d="M16.6666 3.33325H3.33329C2.41413 3.33325 1.66663 4.08075 1.66663 4.99992V14.9999C1.66663 15.9191 2.41413 16.6666 3.33329 16.6666H16.6666C17.5858 16.6666 18.3333 15.9191 18.3333 14.9999V4.99992C18.3333 4.08075 17.5858 3.33325 16.6666 3.33325ZM16.6666 4.99992V5.42575L9.99996 10.6116L3.33329 5.42659V4.99992H16.6666ZM3.33329 14.9999V7.53658L9.48829 12.3241C9.63829 12.4416 9.81913 12.4999 9.99996 12.4999C10.1808 12.4999 10.3616 12.4416 10.5116 12.3241L16.6666 7.53658L16.6683 14.9999H3.33329Z" fill="#B4B7C9"/>
</svg>
