<svg width="20" height="20" viewBox="0 0 20 20" fill="none" xmlns="http://www.w3.org/2000/svg">
<path d="M13.805 18.3325C13.8092 18.3325 13.8242 18.3325 13.8284 18.3325C14.2683 18.3325 14.6842 18.1591 14.9992 17.8441L17.2592 15.5841C17.585 15.2583 17.585 14.7316 17.2592 14.4058L13.9258 11.0725C13.6 10.7466 13.0733 10.7466 12.7475 11.0725L11.4192 12.4008C10.8034 12.2175 9.65418 11.8008 8.92585 11.0725C8.19752 10.3441 7.78085 9.19496 7.59752 8.57913L8.92585 7.25079C9.25168 6.92496 9.25168 6.39829 8.92585 6.07246L5.59252 2.73913C5.28002 2.42663 4.72668 2.42663 4.41418 2.73913L2.15502 4.99913C1.83835 5.31579 1.66002 5.75079 1.66668 6.19496C1.68585 7.38163 2.00002 11.5033 5.24835 14.7516C8.49668 18 12.6184 18.3133 13.805 18.3325ZM5.00418 4.50663L7.15918 6.66163L6.08168 7.73913C5.88252 7.93746 5.79752 8.22413 5.85585 8.49913C5.87585 8.59496 6.36502 10.8675 7.74835 12.2508C9.13168 13.6341 11.4042 14.1233 11.5 14.1433C11.7775 14.2016 12.0617 14.1166 12.26 13.9175L13.3375 12.84L15.4925 14.995L13.8208 16.6658C12.7808 16.6483 9.22252 16.3691 6.42668 13.5725C3.62168 10.7675 3.35002 7.19663 3.33335 6.17746L5.00418 4.50663ZM16.6659 9.16579H18.3325C18.3325 4.89079 15.105 1.66663 10.8242 1.66663V3.33329C14.2092 3.33329 16.6659 5.78579 16.6659 9.16579Z" fill="#6366F1"/>
<path d="M10.8325 6.66667C12.585 6.66667 13.3325 7.41417 13.3325 9.16667H14.9992C14.9992 6.47917 13.52 5 10.8325 5V6.66667Z" fill="#6366F1"/>
</svg>
