<svg width="20" height="20" viewBox="0 0 20 20" fill="none" xmlns="http://www.w3.org/2000/svg">
<path d="M9.99984 11.6667C11.8382 11.6667 13.3332 10.1717 13.3332 8.33333C13.3332 6.495 11.8382 5 9.99984 5C8.1615 5 6.6665 6.495 6.6665 8.33333C6.6665 10.1717 8.1615 11.6667 9.99984 11.6667ZM9.99984 6.66667C10.919 6.66667 11.6665 7.41417 11.6665 8.33333C11.6665 9.2525 10.919 10 9.99984 10C9.08067 10 8.33317 9.2525 8.33317 8.33333C8.33317 7.41417 9.08067 6.66667 9.99984 6.66667Z" fill="#6366F1"/>
<path d="M9.5169 18.1783C9.6619 18.2816 9.83107 18.3333 10.0002 18.3333C10.1694 18.3333 10.3386 18.2816 10.4836 18.1783C10.7369 17.9991 16.6911 13.7 16.6669 8.33329C16.6669 4.65746 13.6761 1.66663 10.0002 1.66663C6.3244 1.66663 3.33357 4.65746 3.33357 8.32913C3.3094 13.7 9.26357 17.9991 9.5169 18.1783ZM10.0002 3.33329C12.7577 3.33329 15.0002 5.57579 15.0002 8.33746C15.0177 12.0358 11.3436 15.3566 10.0002 16.4458C8.65774 15.3558 4.98274 12.0341 5.00024 8.33329C5.00024 5.57579 7.24274 3.33329 10.0002 3.33329Z" fill="#6366F1"/>
</svg>
