<svg width="20" height="18" viewBox="0 0 20 18" fill="none" xmlns="http://www.w3.org/2000/svg">
<path d="M20 1.02931C17.3099 0.593902 15.3119 1.10848 14.0058 2.57303C12.6998 4.03759 12.0468 6.19484 12.0468 9.04479V17.1196H20V9.04479H15.9064C15.692 7.61981 15.8869 6.46202 16.4912 5.57141C17.115 4.6808 18.1287 4.29487 19.5322 4.41362L20 1.02931ZM7.95322 1.02931C5.26316 0.593902 3.26511 1.10848 1.95906 2.57303C0.653022 4.03759 0 6.19484 0 9.04479V17.1196H7.95322V9.04479H3.85965C3.64522 7.61981 3.84016 6.46202 4.44444 5.57141C5.06823 4.6808 6.08187 4.29487 7.48538 4.41362L7.95322 1.02931Z" fill="white"/>
</svg>
