<svg width="16" height="16" viewBox="0 0 16 16" fill="none" xmlns="http://www.w3.org/2000/svg">
<path d="M14.6313 6.11937C14.5453 5.86737 14.3179 5.68937 14.0526 5.66871L10.2519 5.36671L8.60728 1.72604C8.49995 1.48671 8.26195 1.33337 7.99995 1.33337C7.73795 1.33337 7.49995 1.48671 7.39261 1.72537L5.74795 5.36671L1.94728 5.66871C1.68661 5.68937 1.46195 5.86071 1.37328 6.10671C1.28461 6.35271 1.34728 6.62804 1.53461 6.81071L4.34328 9.54871L3.34995 13.85C3.28861 14.116 3.39595 14.3927 3.62061 14.548C3.73528 14.6267 3.86728 14.6667 3.99995 14.6667C4.12861 14.6667 4.25795 14.6294 4.36995 14.5547L7.99995 12.1347L11.6299 14.5547C11.8619 14.7094 12.1666 14.7034 12.3933 14.5387C12.6186 14.374 12.7179 14.0854 12.6413 13.8174L11.4219 9.55071L14.4459 6.82937C14.6439 6.65071 14.7166 6.37204 14.6313 6.11937Z" fill="#FFBA08"/>
</svg>
