<svg width="14" height="14" viewBox="0 0 14 14" fill="none" xmlns="http://www.w3.org/2000/svg">
<path d="M3.34399 8.54871L2.35066 12.85C2.28932 13.116 2.39599 13.3927 2.62132 13.548C2.73532 13.6267 2.86732 13.6667 2.99999 13.6667C3.12866 13.6667 3.25799 13.6294 3.36999 13.5547L6.99999 11.1347L10.63 13.5547C10.862 13.7094 11.1667 13.7034 11.3933 13.5387C11.6187 13.374 11.718 13.0854 11.6413 12.8174L10.422 8.55071L13.446 5.82937C13.644 5.65071 13.7167 5.37204 13.6313 5.12004C13.5453 4.86804 13.318 4.69071 13.0527 4.66937L9.25199 4.36671L7.60732 0.726041C7.49999 0.486707 7.26199 0.333374 6.99999 0.333374C6.73799 0.333374 6.49999 0.486707 6.39266 0.726041L4.74799 4.36671L0.947324 4.66871C0.685991 4.68937 0.461324 4.86071 0.373324 5.10671C0.283991 5.35271 0.347991 5.62804 0.534658 5.81071L3.34399 8.54871ZM5.24599 5.66471C5.48799 5.64537 5.70132 5.49604 5.80066 5.27404L6.99999 2.62004L8.19932 5.27404C8.29866 5.49604 8.51199 5.64537 8.75399 5.66471L11.402 5.87471L9.22132 7.83737C9.03199 8.00804 8.95666 8.27071 9.02599 8.51604L9.86132 11.4394L7.37066 9.77871C7.14666 9.62871 6.85532 9.62871 6.63132 9.77871L4.02866 11.514L4.72866 8.48337C4.78066 8.25671 4.71132 8.01871 4.54466 7.85671L2.51932 5.88204L5.24599 5.66471Z" fill="#B4B7C9"/>
</svg>
